{"accessors":[{"bufferView":0,"byteOffset":0,"componentType":5126,"count":2044,"max":[0.061,0.08,0.08],"min":[0.055,-0.08,-0.08],"type":"VEC3"},{"bufferView":1,"byteOffset":0,"componentType":5126,"count":2044,"type":"VEC3"},{"bufferView":2,"byteOffset":0,"componentType":5123,"count":6192,"type":"SCALAR"}],"asset":{"generator":"Open CASCADE Technology [www.opencascade.com]","version":"2.0","extras":{"Originating system":"Open CASCADE Technology [www.opencascade.com]","Read files list":"106-02-020.glb"}},"bufferViews":[{"buffer":0,"byteLength":24528,"byteOffset":0,"byteStride":12,"target":34962},{"buffer":0,"byteLength":24528,"byteOffset":24528,"byteStride":12,"target":34962},{"buffer":0,"byteLength":12384,"byteOffset":49056,"target":34963}],"buffers":[{"byteLength":61440,"uri":"106-02-020-ring.bin"}],"meshes":[{"name":"106-02-020/Ring","primitives":[{"attributes":{"NORMAL":1,"POSITION":0},"indices":2,"mode":4}]}],"nodes":[{"children":[1],"name":"106-02-020.obj"},{"mesh":0,"name":"106-02-020/Ring"}],"scene":0,"scenes":[{"nodes":[0]}]}