{"accessors":[{"bufferView":0,"byteOffset":0,"componentType":5126,"count":2099,"max":[0.091,0.014989948272705079,-0.05000001525878906],"min":[-0.015,-0.014991470336914063,-0.07998630523681641],"type":"VEC3"},{"bufferView":1,"byteOffset":0,"componentType":5126,"count":2099,"type":"VEC3"},{"bufferView":2,"byteOffset":0,"componentType":5123,"count":9657,"type":"SCALAR"}],"asset":{"generator":"Open CASCADE Technology [www.opencascade.com]","version":"2.0","extras":{"Originating system":"Open CASCADE Technology [www.opencascade.com]","Read files list":"106-02-020.glb"}},"bufferViews":[{"buffer":0,"byteLength":25188,"byteOffset":0,"byteStride":12,"target":34962},{"buffer":0,"byteLength":25188,"byteOffset":25188,"byteStride":12,"target":34962},{"buffer":0,"byteLength":19316,"byteOffset":50376,"target":34963}],"buffers":[{"byteLength":69692,"uri":"106-02-020-screw.bin"}],"meshes":[{"name":"106-02-020/Screw","primitives":[{"attributes":{"NORMAL":1,"POSITION":0},"indices":2,"mode":4}]}],"nodes":[{"children":[1],"name":"106-02-020.obj"},{"mesh":0,"name":"106-02-020/Screw"}],"scene":0,"scenes":[{"nodes":[0]}]}