{"accessors":[{"bufferView":0,"byteOffset":0,"componentType":5126,"count":3289,"max":[0.116,0.1775,0.1775],"min":[0.061,-0.1775,-0.1775],"type":"VEC3"},{"bufferView":1,"byteOffset":0,"componentType":5126,"count":3289,"type":"VEC3"},{"bufferView":2,"byteOffset":0,"componentType":5123,"count":10896,"type":"SCALAR"}],"asset":{"generator":"Open CASCADE Technology [www.opencascade.com]","version":"2.0","extras":{"Originating system":"Open CASCADE Technology [www.opencascade.com]","Read files list":"106-02-020.glb"}},"bufferViews":[{"buffer":0,"byteLength":39468,"byteOffset":0,"byteStride":12,"target":34962},{"buffer":0,"byteLength":39468,"byteOffset":39468,"byteStride":12,"target":34962},{"buffer":0,"byteLength":21792,"byteOffset":78936,"target":34963}],"buffers":[{"byteLength":100728,"uri":"106-02-020-damperMain.bin"}],"meshes":[{"name":"106-02-020/Vibration damper main","primitives":[{"attributes":{"NORMAL":1,"POSITION":0},"indices":2,"mode":4}]}],"nodes":[{"children":[1],"name":"106-02-020.obj"},{"mesh":0,"name":"106-02-020/Vibration damper main"}],"scene":0,"scenes":[{"nodes":[0]}]}