<?xml version="1.0" standalone="no"?>
<!DOCTYPE svg PUBLIC "-//W3C//DTD SVG 20010904//EN"
 "http://www.w3.org/TR/2001/REC-SVG-20010904/DTD/svg10.dtd">
<svg version="1.0" xmlns="http://www.w3.org/2000/svg"
 width="1464.000000pt" height="1257.000000pt" viewBox="0 0 1464.000000 1257.000000"
 preserveAspectRatio="xMidYMid meet">
<metadata>
Created by potrace 1.16, written by Peter Selinger 2001-2019
</metadata>
<g transform="translate(0.000000,1257.000000) scale(0.100000,-0.100000)"
fill="#000000" stroke="none">
<path d="M6986 12498 c12 -20 250 -404 416 -671 81 -131 148 -242 148 -247 0
-8 -141 -92 -395 -235 -60 -34 -139 -79 -175 -99 -36 -21 -90 -52 -120 -68
-30 -17 -95 -54 -145 -83 -84 -49 -600 -344 -710 -405 -27 -16 -252 -144 -500
-285 -247 -142 -504 -288 -570 -325 -66 -37 -291 -166 -500 -285 -209 -120
-400 -229 -425 -243 -25 -13 -70 -39 -100 -57 -30 -18 -113 -65 -183 -105 -71
-40 -126 -74 -123 -77 3 -3 29 8 58 24 72 40 531 303 643 368 50 29 110 64
135 77 25 14 61 34 80 46 19 11 262 149 540 307 278 158 550 313 605 345 97
56 416 239 773 441 96 55 179 96 184 92 6 -3 9 -2 5 3 -5 9 76 57 685 403 142
80 257 149 258 154 0 6 -230 381 -505 822 l-62 100 2225 3 c1224 1 2227 0
2229 -2 2 -2 -23 -57 -56 -122 -32 -66 -159 -321 -281 -569 -439 -891 -613
-1240 -619 -1245 -3 -3 -7 -11 -9 -19 -2 -8 -97 -203 -211 -435 -115 -232
-313 -632 -440 -891 -128 -258 -249 -502 -269 -542 l-37 -72 -3 350 -2 349
-2160 0 -2160 0 2 -792 3 -793 510 -5 c489 -5 509 -6 485 -22 -13 -10 -29 -18
-35 -18 -5 0 -37 -18 -70 -40 -33 -22 -63 -40 -67 -40 -3 0 -39 -20 -79 -45
-40 -25 -79 -45 -86 -45 -7 0 -13 -4 -13 -10 0 -5 -4 -10 -10 -10 -7 0 -113
-59 -180 -101 -8 -5 -26 -15 -40 -21 -20 -10 -114 -63 -190 -108 -41 -24 -281
-161 -325 -185 -27 -16 -86 -50 -131 -76 -45 -27 -84 -49 -89 -49 -4 0 -19 -8
-33 -19 -23 -16 -106 -64 -312 -179 -25 -13 -50 -29 -57 -34 -7 -6 -46 8 -112
42 -167 83 -109 80 -1516 83 l-1220 2 -3 438 -2 437 1570 0 1570 0 0 438 c0
433 0 438 -27 572 l-26 135 -79 117 c-78 117 -79 118 -196 197 l-118 79 -129
26 -130 26 -1584 0 -1585 0 -135 -26 c-154 -29 -141 -24 -282 -116 -106 -68
-107 -69 -187 -191 l-81 -122 -26 -128 -25 -129 0 -1316 0 -1317 26 -132 27
-132 77 -116 c76 -114 79 -117 196 -196 l119 -81 145 -29 145 -29 470 0 470 0
50 -98 c275 -534 395 -771 395 -776 0 -3 -477 -6 -1060 -6 l-1060 0 0 -413 c0
-405 1 -417 26 -543 l26 -129 79 -120 c78 -119 80 -121 186 -192 137 -90 113
-79 250 -111 l118 -27 1118 -5 1118 -5 108 -210 c59 -115 184 -361 279 -546
l172 -336 0 -202 0 -201 99 0 c76 0 100 3 103 14 2 7 41 -33 88 -90 68 -83
108 -120 202 -188 141 -102 147 -105 302 -162 113 -42 133 -46 296 -61 l175
-16 173 37 c206 43 237 56 502 209 68 39 287 162 470 263 l185 103 3 -55 3
-54 99 0 100 0 0 113 c0 96 3 114 18 123 23 15 112 64 115 64 1 0 1 -53 -1
-117 -2 -65 -1 -133 3 -150 l6 -33 99 0 100 0 0 209 0 210 43 25 42 26 2 -58
c2 -31 4 -136 5 -232 l3 -175 103 -3 102 -3 0 188 c0 159 3 193 18 223 13 27
24 36 49 38 58 6 63 -15 63 -245 l0 -203 99 0 100 0 7 46 c10 66 -2 431 -16
476 -12 41 -51 92 -84 110 -11 7 -43 15 -71 18 l-50 5 110 61 c61 34 131 74
157 88 26 14 49 26 52 26 3 0 6 -29 6 -65 l0 -65 100 0 100 0 0 85 c0 61 -4
85 -12 86 -7 1 -31 2 -53 3 -22 0 -45 4 -51 8 -18 12 -82 -3 -87 -21 -3 -14
-69 -54 -232 -141 -27 -15 -77 -44 -110 -64 -33 -20 -66 -36 -72 -36 -7 0 -13
-4 -13 -10 0 -18 -18 -10 -23 10 -5 18 -14 20 -101 20 l-96 0 0 -78 0 -78 -39
-22 c-21 -12 -41 -22 -43 -22 -3 0 -11 26 -17 57 -15 65 -48 116 -91 138 -65
33 -186 8 -224 -47 -15 -21 -16 -11 -16 135 l0 158 -102 -3 -103 -3 -3 -377
-2 -378 -63 -31 c-34 -17 -75 -41 -92 -52 -24 -17 -20 -10 17 32 51 57 89 148
67 162 -6 4 -39 10 -73 14 -33 3 -73 9 -87 12 -23 4 -28 0 -42 -36 -9 -22 -25
-45 -36 -50 -80 -43 -152 49 -136 173 13 90 42 126 104 126 28 0 43 -13 76
-63 9 -14 19 -14 89 -2 96 18 121 25 109 34 -5 3 -17 28 -27 55 -39 103 -128
156 -263 156 -118 0 -198 -41 -250 -130 -26 -43 -39 -94 -48 -182 -5 -56 -10
-68 -24 -68 -15 0 -19 12 -24 78 -14 194 -100 290 -269 300 -93 5 -154 -9
-205 -49 -38 -31 -38 -31 -106 21 l-46 35 -3 110 -3 110 -332 3 -333 2 0 -115
0 -115 110 0 110 0 0 -325 0 -325 115 0 115 0 0 325 0 325 103 0 102 0 62 -49
62 -48 -18 -29 c-40 -66 -54 -132 -48 -233 9 -185 90 -286 244 -306 57 -7 162
9 204 31 49 25 129 118 129 150 0 7 -34 15 -87 20 -121 11 -117 12 -128 -11
-25 -48 -104 -44 -135 8 -42 68 -45 67 194 67 l213 0 7 -38 c13 -81 78 -166
153 -202 52 -24 162 -35 221 -22 23 5 42 9 42 7 0 -2 -24 -15 -52 -30 -29 -15
-86 -47 -125 -71 -40 -24 -75 -44 -77 -44 -2 0 -39 -20 -80 -45 -42 -25 -79
-45 -82 -45 -3 0 -38 -20 -78 -44 -160 -97 -250 -132 -435 -170 l-173 -36
-170 15 c-164 15 -174 17 -306 67 -126 48 -246 115 -279 157 -7 8 -13 12 -13
7 0 -18 -100 72 -163 147 -38 45 -82 97 -98 114 l-29 33 0 412 1 413 -103 0
-103 0 -2 -204 c-1 -112 -3 -205 -5 -206 -2 -2 -43 76 -93 173 -49 96 -168
326 -262 511 -95 185 -173 339 -173 344 0 4 217 7 483 7 l482 1 130 27 c130
27 131 27 250 106 l120 80 76 116 76 116 27 135 26 134 0 1280 0 1281 -29 145
-30 145 -74 112 c-55 84 -87 122 -125 149 -29 20 -51 37 -50 38 2 1 37 20 78
42 41 23 120 67 175 98 55 32 116 66 135 77 105 60 131 75 197 115 40 24 74
43 77 43 2 0 65 36 141 80 76 44 139 80 140 80 2 0 36 19 77 43 40 24 96 56
123 72 85 48 257 145 315 177 110 61 266 151 311 179 l46 29 211 0 212 0 0
-1447 0 -1448 -33 -19 c-17 -10 -59 -33 -92 -51 -33 -18 -105 -59 -160 -90
-55 -32 -125 -71 -155 -88 -30 -17 -118 -66 -195 -110 -77 -44 -165 -93 -195
-110 -30 -17 -118 -66 -195 -110 -329 -187 -305 -175 -318 -152 -14 23 -148
283 -396 768 -95 186 -175 336 -178 334 -7 -7 554 -1108 576 -1130 5 -5 57 18
122 55 63 36 139 78 169 95 86 48 166 93 614 346 230 131 420 236 423 234 2
-2 4 -447 6 -988 l2 -984 683 -3 682 -2 0 1378 0 1378 63 36 c34 19 78 44 97
55 66 37 125 70 278 157 85 47 159 83 164 79 6 -3 8 -2 5 3 -3 6 31 31 76 56
45 25 147 82 227 128 171 97 611 345 725 408 44 24 86 50 94 57 11 11 7 38
-24 169 l-38 157 57 107 c31 59 80 153 108 210 l53 102 6 -692 c5 -693 5 -693
30 -803 29 -126 27 -122 118 -255 65 -95 75 -105 183 -178 l113 -76 135 -28
135 -27 1013 -1 c557 0 1012 -4 1012 -9 0 -4 -17 -28 -38 -52 -21 -24 -49 -57
-63 -73 -52 -62 -79 -90 -79 -81 0 5 -7 -1 -16 -13 -8 -12 -19 -22 -24 -22 -9
0 -36 -19 -65 -47 -8 -7 -18 -13 -23 -13 -6 0 -12 -4 -14 -8 -7 -17 -203 -134
-467 -279 -25 -14 -71 -40 -101 -58 -30 -18 -80 -46 -110 -62 -30 -17 -83 -47
-117 -67 -34 -20 -65 -36 -70 -36 -4 0 -28 -14 -53 -30 l-45 -30 -725 0 -725
1 -3 -410 -2 -409 -45 -27 c-25 -14 -51 -23 -58 -19 -6 4 -9 4 -5 -1 8 -8
-221 -145 -242 -145 -5 0 -10 -4 -10 -8 0 -5 -17 -16 -37 -25 -21 -9 -58 -29
-83 -43 -80 -47 -117 -68 -196 -113 -44 -24 -176 -99 -294 -166 -269 -153
-300 -170 -380 -213 -36 -19 -77 -44 -92 -54 -15 -10 -42 -25 -60 -34 -18 -8
-49 -24 -68 -36 -19 -11 -53 -31 -75 -43 -22 -12 -100 -56 -174 -98 -73 -43
-135 -77 -138 -77 -2 0 -22 -12 -44 -26 -23 -14 -47 -23 -55 -20 -7 3 -13 1
-11 -5 1 -5 -11 -17 -28 -27 -16 -9 -61 -36 -100 -58 -38 -23 -90 -52 -115
-64 -25 -13 -39 -25 -32 -28 7 -2 18 1 25 6 7 6 32 21 57 35 25 13 198 111
385 217 187 105 363 204 390 219 43 24 206 116 325 184 19 11 105 59 190 107
155 87 191 108 285 160 28 15 136 76 240 136 105 59 219 123 255 142 36 20 94
53 129 74 35 21 65 37 67 35 2 -2 16 -61 30 -132 26 -127 26 -129 101 -241 74
-110 78 -114 193 -193 l118 -81 150 -30 151 -30 1564 0 1564 0 148 30 149 30
114 78 c112 76 116 79 194 195 l79 119 25 126 24 126 0 1307 0 1306 -25 124
c-25 123 -26 125 -103 240 -76 115 -79 118 -192 194 l-115 77 -138 29 -138 29
-639 0 -639 0 -29 53 c-16 28 -105 192 -197 362 -92 171 -188 345 -211 389
-24 43 -44 80 -44 82 0 2 556 4 1235 4 l1235 0 0 443 c0 429 -1 446 -25 566
l-25 125 -77 115 c-77 113 -80 116 -198 196 l-120 82 -140 26 -141 27 -1302 0
-1301 0 -50 93 c-81 149 -69 147 -137 19 l-59 -112 -155 0 c-129 -1 -178 -6
-292 -29 l-137 -28 -116 -77 c-114 -76 -116 -78 -195 -195 l-79 -119 -31 -153
-30 -154 0 -605 1 -605 -117 -220 c-64 -121 -116 -230 -115 -243 0 -12 17 -86
36 -163 20 -78 35 -143 33 -144 -2 -1 -34 -19 -73 -40 -38 -21 -97 -54 -130
-73 -76 -44 -106 -61 -180 -102 -33 -18 -127 -71 -210 -118 -82 -47 -235 -133
-340 -192 -104 -58 -206 -116 -225 -127 -19 -11 -62 -35 -95 -53 -33 -18 -97
-55 -143 -81 -45 -27 -84 -49 -85 -49 -2 0 -54 -29 -117 -65 -63 -36 -118 -65
-122 -65 -4 0 -8 477 -8 1060 l0 1060 730 0 730 0 0 418 0 419 975 1973 c536
1085 975 1974 975 1976 0 2 -1013 4 -2251 4 -1797 0 -2249 -3 -2243 -12z
m4184 -3097 c27 -50 50 -94 50 -97 0 -2 -47 -4 -105 -4 l-106 0 53 99 c29 55
54 98 55 97 2 -1 25 -44 53 -95z m-6968 -145 c122 -24 124 -25 237 -100 113
-74 115 -76 192 -191 78 -116 78 -117 104 -243 24 -123 25 -134 25 -559 l0
-433 -1567 -2 -1568 -3 -3 -452 -2 -453 1208 0 1209 0 146 -30 c124 -25 154
-35 201 -66 30 -20 59 -33 64 -30 5 3 9 -2 8 -11 0 -10 4 -18 9 -18 35 -2 93
-60 159 -160 40 -60 76 -115 80 -122 3 -6 17 -66 31 -134 l25 -122 0 -1302 0
-1302 -25 -121 c-24 -120 -26 -124 -102 -240 -78 -118 -78 -118 -194 -194
-113 -75 -117 -77 -241 -102 l-125 -26 -1600 0 -1600 0 -127 26 -128 26 -116
78 c-114 77 -116 79 -193 195 -69 104 -79 126 -90 189 -6 39 -18 99 -25 134
-11 48 -14 160 -14 463 l0 399 1575 0 1575 0 -2 452 -3 453 -1250 5 c-1236 5
-1251 5 -1352 27 -89 19 -112 29 -182 76 -45 29 -78 57 -73 62 4 4 2 5 -4 2
-23 -13 -77 42 -153 155 l-78 117 -27 138 -26 138 0 1300 1 1300 28 138 28
137 74 111 c73 110 76 113 193 191 117 79 119 80 235 103 l116 23 1612 1 1611
1 124 -24z m5308 -751 l0 -775 -730 0 -730 0 0 -2445 0 -2445 -665 0 -665 0 0
2445 0 2445 -745 0 -745 0 0 775 0 775 2140 0 2140 0 0 -775z m4512 748 c89
-18 105 -26 216 -99 l120 -79 75 -115 c74 -114 75 -116 101 -244 26 -127 26
-136 26 -558 l0 -428 -1227 0 c-676 0 -1382 0 -1570 0 l-343 0 0 -455 0 -455
1208 0 1207 0 140 -27 140 -26 119 -78 c120 -79 120 -79 197 -194 l76 -116 27
-134 26 -134 0 -1286 0 -1287 -26 -131 c-19 -96 -32 -141 -50 -164 -13 -17
-24 -35 -24 -40 0 -4 -10 -20 -23 -34 -12 -15 -35 -50 -52 -78 -16 -28 -35
-51 -42 -51 -6 0 -13 -3 -15 -8 -4 -10 -116 -86 -174 -118 -25 -14 -95 -35
-165 -49 l-122 -25 -1597 0 -1596 0 -128 25 c-126 26 -128 26 -237 99 -110 74
-188 153 -173 177 4 7 3 9 -3 6 -6 -4 -31 24 -55 61 -40 60 -48 82 -72 197
-26 128 -26 136 -26 538 l0 407 1570 0 1570 0 0 455 0 455 -1226 0 -1227 0
-126 26 c-124 26 -127 27 -240 103 -112 75 -115 78 -191 191 -76 114 -76 116
-103 245 l-27 130 0 1313 0 1314 27 131 26 132 78 116 c76 114 79 117 191 192
111 75 118 78 229 101 l114 24 1640 -2 c1610 -2 1642 -2 1737 -23z m-1811
-1770 c272 -504 349 -647 349 -650 0 -1 -252 -3 -560 -3 l-560 0 0 440 0 440
324 0 324 0 123 -227z m-8901 -2678 l0 -435 -503 0 -503 0 -64 131 c-36 72
-64 135 -62 140 1 5 -2 9 -7 9 -4 0 -50 82 -101 183 -51 100 -120 233 -152
295 l-60 112 726 0 726 0 0 -435z m9800 -5 l0 -440 -832 0 -833 0 45 28 c25
16 70 42 100 59 30 16 107 59 170 95 136 77 169 95 360 203 80 45 162 91 183
103 21 12 72 48 115 80 42 31 83 62 91 67 28 20 88 85 151 163 l65 81 193 0
192 1 0 -440z m-9270 -3045 l0 -426 -87 3 -88 3 -3 423 -2 422 90 0 90 0 0
-425z m1050 325 l0 -100 -110 0 -110 0 0 -325 0 -325 -100 0 -101 0 3 325 3
325 -35 1 c-19 0 -66 1 -105 2 l-70 2 -3 98 -3 97 316 0 315 0 0 -100z m1550
-55 c0 -85 4 -155 8 -155 5 0 19 12 31 26 56 64 165 79 223 29 63 -54 74 -120
70 -407 l-2 -188 -84 0 -85 0 -3 204 c-3 184 -5 206 -22 225 -23 26 -78 28
-101 4 -30 -30 -35 -63 -35 -249 l0 -185 -90 2 -90 1 0 424 0 424 90 0 90 0 0
-155z m1278 83 l-3 -73 -85 0 -85 0 -3 73 -3 72 91 0 91 0 -3 -72z m-2359
-170 c49 -15 105 -71 130 -128 20 -46 43 -204 32 -215 -2 -3 -90 -5 -194 -5
l-190 0 6 -36 c8 -47 30 -80 68 -100 38 -19 72 -12 106 22 24 24 26 24 106 14
45 -5 82 -10 83 -10 2 0 -4 -13 -12 -29 -26 -52 -96 -107 -153 -121 -67 -16
-185 -9 -229 14 -108 56 -167 204 -143 356 11 68 61 177 80 173 6 -2 10 2 9 9
-4 16 79 61 127 69 47 8 126 2 174 -13z m1979 -11 c17 -12 30 -28 27 -35 -3
-7 -1 -10 5 -7 5 3 16 -18 25 -47 12 -40 15 -103 15 -280 l0 -229 -87 3 -88 3
-5 206 c-6 227 -9 239 -65 239 -79 0 -93 -45 -94 -297 l-1 -153 -85 0 -85 0 0
305 0 305 80 0 80 0 0 -45 c0 -25 3 -45 6 -45 4 0 27 20 52 45 24 25 59 49 76
55 43 13 105 3 144 -23z m-1345 12 c52 -14 106 -64 133 -123 13 -27 21 -53 19
-56 -3 -4 -28 -10 -56 -14 -29 -4 -64 -9 -79 -12 -23 -5 -29 -1 -39 24 -28 66
-125 68 -168 3 -24 -37 -30 -174 -10 -223 19 -45 55 -70 104 -70 37 0 54 12
93 70 14 21 18 21 90 11 41 -6 76 -12 78 -14 7 -7 -49 -113 -75 -141 -59 -63
-158 -87 -268 -64 -115 23 -182 99 -205 233 -29 163 41 329 155 371 47 17 174
20 228 5z m566 -195 c32 -41 28 -95 -9 -122 -16 -12 -32 -22 -36 -22 -3 0 -18
-9 -34 -20 l-27 -19 1 42 c5 110 6 118 31 142 31 32 48 31 74 -1z"/>
<path d="M5192 1814 c-24 -17 -41 -50 -49 -96 l-4 -28 105 0 106 0 -7 33 c-8
45 -30 85 -52 97 -29 15 -73 12 -99 -6z m108 -26 c11 -12 20 -27 20 -32 0 -6
3 -21 6 -33 6 -23 5 -23 -80 -23 -95 0 -100 4 -71 60 28 53 88 67 125 28z"/>
<path d="M270 2196 c-136 -37 -213 -168 -180 -305 25 -104 88 -158 247 -212
107 -37 133 -58 133 -111 0 -53 -27 -78 -84 -78 -59 0 -91 26 -107 91 l-13 51
-66 -6 c-36 -3 -82 -6 -102 -6 -36 0 -38 -2 -38 -33 0 -39 25 -118 52 -164 48
-80 144 -117 286 -111 106 5 150 21 208 77 57 54 79 114 79 216 0 73 -4 98
-22 131 -41 77 -111 122 -257 166 -39 11 -81 27 -93 34 -29 18 -30 57 -1 84
44 41 116 13 138 -55 13 -39 13 -40 144 -28 l77 6 -6 31 c-27 134 -75 192
-187 222 -64 17 -147 17 -208 0z m169 -7 c76 -12 120 -33 153 -74 29 -36 58
-106 58 -140 0 -24 -3 -25 -59 -25 -32 0 -72 -3 -87 -6 -26 -5 -31 -2 -42 29
-18 50 -46 70 -107 77 -29 3 -51 2 -48 -3 3 -4 -2 -14 -12 -20 -19 -15 -23
-70 -6 -90 6 -8 57 -30 114 -48 152 -49 209 -87 250 -164 30 -58 30 -182 -1
-248 -63 -133 -210 -188 -386 -142 -102 27 -153 81 -182 197 -19 71 -14 78 56
78 25 0 61 3 81 6 35 6 36 5 42 -29 11 -72 71 -121 141 -115 36 3 86 59 86 96
0 56 -42 89 -171 131 -134 44 -202 110 -218 210 -14 92 22 194 83 234 14 10
26 15 26 12 0 -4 7 0 15 9 8 8 37 18 63 21 26 4 52 8 57 10 17 6 28 5 94 -6z"/>
<path d="M9955 2201 c-87 -21 -161 -86 -183 -160 -18 -58 -14 -150 7 -197 34
-76 96 -118 254 -175 72 -26 90 -36 103 -61 31 -60 -4 -118 -72 -118 -57 0
-98 34 -113 96 l-12 46 -97 -7 c-53 -4 -101 -10 -105 -15 -13 -12 11 -113 38
-165 25 -46 81 -104 101 -105 7 0 25 -7 40 -15 39 -20 194 -20 263 1 76 22
144 92 167 170 35 119 14 232 -55 301 -37 37 -133 85 -206 102 -106 26 -137
54 -114 105 14 30 60 43 101 27 27 -10 58 -56 58 -86 0 -17 18 -18 135 -8 l77
6 -6 44 c-8 61 -45 131 -86 164 -60 48 -203 72 -295 50z m215 -22 c74 -18 131
-89 150 -182 9 -45 12 -43 -96 -51 l-81 -6 -8 32 c-5 18 -8 38 -8 44 0 6 -5
11 -11 11 -6 1 -25 7 -42 14 -44 17 -98 5 -112 -27 -7 -14 -12 -34 -12 -44 0
-25 34 -56 68 -63 15 -3 41 -11 57 -18 17 -7 33 -12 37 -11 14 3 122 -48 155
-74 104 -80 111 -286 12 -398 -43 -48 -91 -72 -168 -82 -54 -7 -184 3 -177 14
2 4 -9 7 -24 8 -62 2 -140 104 -159 207 -10 55 -14 52 106 61 l72 5 7 -36 c15
-82 105 -134 173 -99 37 19 51 44 51 87 0 25 -10 41 -41 71 -23 22 -43 37 -46
34 -9 -9 -193 60 -193 73 0 4 -14 15 -31 25 -42 25 -79 109 -79 179 0 90 60
187 135 218 66 27 178 31 265 8z"/>
<path d="M2707 2193 c-16 -4 -17 -15 -15 -86 l3 -82 94 -3 c62 -2 97 1 101 8
12 20 11 141 -1 156 -11 14 -138 19 -182 7z m173 -88 l0 -75 -85 0 -85 0 0 75
0 75 85 0 85 0 0 -75z"/>
<path d="M9133 2193 c-10 -4 -13 -100 -13 -439 l0 -434 99 0 c94 0 99 1 105
23 3 12 6 205 6 429 0 315 -3 409 -12 415 -14 8 -164 13 -185 6z m177 -438 l0
-425 -85 0 -85 0 0 425 0 425 85 0 85 0 0 -425z"/>
<path d="M11108 2193 c-17 -4 -18 -34 -18 -439 l0 -434 100 0 100 0 -2 438 -3
437 -80 2 c-44 0 -88 -1 -97 -4z m172 -438 l0 -426 -87 3 -88 3 -3 423 -2 422
90 0 90 0 0 -425z"/>
<path d="M12473 2193 c-9 -3 -13 -31 -13 -89 l0 -84 100 0 100 0 0 84 c0 67
-3 85 -16 90 -19 7 -153 7 -171 -1z m175 -85 l-3 -73 -85 0 -84 0 -4 73 -4 72
92 0 91 0 -3 -72z"/>
<path d="M12222 2160 c-23 -17 -45 -30 -48 -30 -3 0 -26 -14 -50 -32 -42 -30
-44 -33 -44 -84 0 -52 0 -53 -32 -56 l-33 -3 -3 -92 -3 -93 35 0 34 0 4 -172
c4 -199 15 -239 78 -270 36 -18 121 -23 193 -12 l37 7 0 51 c0 28 -3 67 -6 87
-6 36 -6 36 -49 32 -53 -6 -55 -1 -55 160 l0 117 55 0 56 0 -3 93 -3 92 -52 3
-53 3 0 115 c0 62 -3 114 -7 114 -5 0 -27 -14 -51 -30z m104 -220 l54 0 -1
-75 c-2 -82 -8 -90 -72 -83 l-32 3 -3 -139 c-2 -121 0 -141 15 -158 13 -15 25
-18 49 -14 l31 6 7 -66 c4 -41 3 -71 -3 -77 -6 -6 -45 -12 -88 -14 -97 -5
-139 13 -167 72 -15 33 -19 72 -24 213 -4 156 -7 172 -23 172 -44 0 -49 9 -49
86 l0 74 35 0 35 0 0 60 0 59 68 44 c119 77 107 82 110 -49 l3 -114 55 0z"/>
<path d="M1051 1955 c-19 -8 -44 -26 -55 -40 -29 -34 -36 -32 -36 10 l0 36
-92 -3 -93 -3 0 -435 0 -435 103 -3 102 -3 0 141 c0 77 3 140 7 140 4 0 17
-10 29 -21 26 -24 93 -35 149 -25 49 9 107 65 136 129 21 46 24 67 24 182 0
75 -5 147 -12 171 -18 57 -70 132 -105 150 -44 23 -117 27 -157 9z m154 -24
c40 -23 89 -107 105 -180 18 -88 9 -233 -19 -298 -26 -59 -87 -118 -132 -128
-52 -12 -112 3 -148 35 -40 37 -51 38 -50 3 1 -16 1 -83 0 -151 l-1 -123 -82
3 -83 3 -3 423 -2 422 80 0 80 0 0 -47 1 -48 37 42 c65 73 140 88 217 44z"/>
<path d="M1005 1774 c-48 -52 -55 -186 -12 -251 38 -57 113 -49 139 15 17 44
14 172 -6 210 -28 55 -83 67 -121 26z m108 -34 c14 -27 17 -53 15 -116 -3 -91
-21 -124 -65 -124 -58 0 -83 42 -83 141 0 98 28 143 85 137 23 -2 34 -11 48
-38z"/>
<path d="M1615 1964 c-146 -37 -225 -152 -225 -329 0 -157 68 -275 179 -313
49 -17 182 -15 238 4 56 18 106 63 135 117 27 53 29 51 -99 63 -70 6 -74 6
-99 -20 -38 -37 -84 -36 -118 5 -14 17 -26 34 -26 39 0 5 -3 15 -6 24 -5 14
17 16 188 18 l193 3 -3 75 c-7 145 -59 247 -147 290 -44 21 -165 35 -210 24z
m201 -38 c87 -40 144 -152 144 -283 l0 -53 -190 0 c-184 0 -190 -1 -190 -20 0
-30 24 -82 46 -101 41 -35 95 -30 140 12 20 19 28 20 94 10 40 -5 74 -12 77
-14 8 -9 -25 -61 -59 -94 -60 -57 -171 -77 -286 -52 -68 14 -121 62 -158 141
-26 56 -29 74 -29 158 1 52 7 112 14 134 18 51 70 128 82 120 5 -3 8 0 7 6 -4
16 66 52 117 61 59 11 133 1 191 -25z"/>
<path d="M1623 1807 c-22 -23 -55 -102 -45 -112 3 -3 50 -5 104 -5 96 0 98 0
98 24 0 39 -20 84 -45 100 -34 23 -86 19 -112 -7z m102 -3 c22 -14 45 -60 45
-90 0 -11 -21 -14 -90 -14 -49 0 -90 2 -90 4 0 22 28 76 49 93 31 27 53 29 86
7z"/>
<path d="M2209 1952 c-56 -21 -77 -36 -116 -87 -50 -65 -66 -130 -61 -253 3
-87 8 -116 27 -152 53 -104 116 -142 244 -148 151 -8 225 30 278 142 32 68 36
96 14 96 -8 0 -16 0 -17 1 -2 1 -36 7 -76 14 l-73 12 -20 -38 c-21 -43 -45
-59 -84 -59 -65 0 -95 50 -95 157 0 82 22 132 65 149 45 17 94 0 108 -37 13
-33 14 -33 120 -17 87 13 89 16 56 88 -28 63 -74 107 -136 130 -67 25 -170 26
-234 2z m241 -19 c19 -8 48 -26 64 -41 32 -30 80 -123 68 -133 -4 -3 -41 -12
-82 -18 -60 -10 -76 -9 -79 1 -2 7 -17 26 -33 42 -25 24 -35 28 -68 23 -42 -5
-55 -15 -85 -61 -29 -44 -27 -179 4 -229 29 -47 85 -66 128 -43 26 14 70 58
64 64 -1 1 -1 7 1 13 2 7 29 7 86 -2 89 -14 86 -10 62 -74 -17 -43 -72 -106
-112 -127 -37 -20 -58 -23 -143 -23 -83 1 -107 4 -140 22 -94 50 -134 123
-142 257 -8 129 20 218 92 292 18 19 78 47 115 55 47 10 157 0 200 -18z"/>
<path d="M3138 1955 c-60 -20 -112 -72 -128 -131 -7 -24 -10 -48 -6 -51 7 -8
96 -21 146 -22 29 -1 39 4 53 29 33 55 137 50 137 -8 0 -35 -11 -41 -150 -78
-122 -33 -158 -54 -187 -114 -38 -74 -26 -161 31 -221 38 -40 64 -49 139 -49
61 0 113 18 163 55 21 15 22 14 32 -15 l11 -30 92 0 91 0 -7 28 c-4 15 -10
128 -13 252 -8 256 -15 281 -90 334 -39 28 -48 30 -154 33 -81 2 -127 -2 -160
-12z m286 -19 c37 -16 70 -50 87 -91 8 -19 15 -110 19 -255 3 -124 10 -233 14
-243 8 -16 2 -18 -75 -15 l-84 3 -9 38 c-5 20 -12 37 -15 37 -3 0 -23 -16 -43
-36 -29 -27 -52 -38 -96 -46 -141 -26 -223 36 -223 169 0 101 45 145 187 182
49 13 109 32 133 42 41 18 43 21 37 51 -9 46 -32 60 -88 55 -44 -4 -78 -24
-78 -46 0 -5 -4 -13 -10 -16 -9 -6 -159 11 -167 19 -2 1 2 18 8 37 37 107 113
143 283 133 49 -3 103 -11 120 -18z"/>
<path d="M3310 1617 c-14 -7 -47 -21 -73 -31 -67 -25 -89 -84 -47 -126 32 -32
83 -26 126 13 33 30 37 38 38 92 1 63 -6 72 -44 52z m34 -39 c-11 -93 -29
-116 -92 -125 -35 -5 -42 -2 -57 21 -24 37 -6 78 43 99 20 8 48 19 62 25 42
18 49 15 44 -20z"/>
<path d="M8021 1960 c-85 -20 -171 -117 -192 -218 -18 -90 -7 -218 25 -283 55
-108 107 -141 241 -147 111 -5 164 8 215 54 62 56 115 183 78 185 -7 0 -48 6
-90 13 l-78 12 -21 -42 c-17 -36 -27 -45 -57 -50 -71 -13 -122 46 -122 141 0
109 39 169 107 167 37 -1 52 -12 78 -57 10 -17 17 -17 95 -5 47 7 88 14 92 17
14 8 -25 94 -63 137 -65 74 -188 104 -308 76z m210 -21 c20 -5 52 -24 71 -42
37 -34 83 -120 74 -136 -3 -5 -32 -12 -63 -15 -32 -4 -66 -9 -75 -12 -12 -4
-22 3 -29 19 -6 14 -26 33 -44 43 -29 15 -39 16 -75 5 -34 -10 -45 -20 -61
-54 -23 -51 -25 -162 -5 -212 19 -45 71 -78 111 -70 32 5 85 56 85 80 0 18 -1
18 95 4 76 -12 76 -12 70 -38 -3 -14 -17 -44 -30 -66 -56 -96 -130 -131 -260
-123 -100 7 -158 35 -205 100 -52 71 -72 192 -50 300 32 164 138 246 300 232
30 -3 71 -10 91 -15z"/>
<path d="M8645 1963 c-82 -18 -137 -65 -161 -135 -9 -27 -14 -52 -11 -54 3 -3
36 -9 73 -15 38 -5 79 -11 92 -14 17 -4 24 0 31 18 12 32 33 47 74 54 27 4 39
1 56 -16 11 -11 21 -30 21 -40 0 -20 -45 -39 -190 -77 -120 -32 -170 -88 -170
-194 0 -118 66 -180 190 -180 62 0 122 20 157 53 l23 20 11 -31 11 -32 95 0
c94 0 95 0 88 23 -5 12 -11 121 -15 242 -5 138 -12 234 -21 258 -18 53 -64 95
-123 112 -46 14 -184 19 -231 8z m249 -23 c15 -5 24 -14 21 -20 -3 -5 0 -7 7
-5 14 5 46 -31 63 -70 5 -11 12 -121 16 -245 4 -124 10 -235 14 -247 7 -23 6
-23 -73 -23 l-81 0 -11 40 c-6 22 -13 40 -15 40 -2 0 -17 -14 -34 -30 -54 -55
-163 -76 -234 -46 -79 32 -117 140 -83 231 22 56 51 77 146 105 199 58 200 59
200 93 0 48 -13 59 -69 65 -49 4 -53 3 -85 -32 l-34 -37 -72 10 c-39 5 -74 12
-78 15 -3 3 0 24 7 45 15 52 78 106 139 120 55 12 216 7 256 -9z"/>
<path d="M8734 1596 c-84 -39 -103 -70 -77 -125 14 -28 20 -31 59 -31 34 0 51
6 76 29 29 25 32 35 36 95 5 78 6 78 -94 32z m86 -21 c0 -67 -51 -125 -109
-125 -46 0 -69 71 -33 102 15 14 115 56 135 57 4 1 7 -15 7 -34z"/>
<path d="M10655 1964 c-77 -20 -133 -59 -175 -124 -38 -60 -52 -118 -52 -211
1 -106 30 -179 97 -244 60 -59 103 -75 198 -75 54 0 76 6 128 33 70 36 108 81
136 162 23 68 23 204 0 272 -23 66 -88 140 -146 165 -45 19 -148 31 -186 22z
m181 -34 c54 -25 119 -99 140 -162 22 -67 16 -224 -12 -285 -10 -24 -22 -43
-26 -43 -5 0 -8 -6 -8 -13 0 -7 -12 -23 -26 -36 -104 -91 -279 -93 -367 -4
-114 113 -130 322 -36 458 34 49 53 65 104 87 71 31 159 30 231 -2z"/>
<path d="M10668 1787 c-42 -35 -52 -65 -51 -154 0 -82 8 -107 48 -147 24 -23
79 -20 110 7 33 29 51 111 41 191 -7 49 -14 66 -41 93 -39 39 -70 42 -107 10z
m102 -22 c46 -49 45 -212 -1 -262 -40 -41 -101 -26 -125 32 -17 41 -19 167 -3
198 33 63 87 77 129 32z"/>
<path d="M12967 1959 c-58 -14 -91 -34 -136 -85 -144 -164 -82 -484 106 -548
59 -20 163 -21 210 -1 61 26 117 79 148 141 37 76 46 207 21 296 -46 156 -186
236 -349 197z m198 -29 c103 -46 165 -177 151 -320 -16 -172 -100 -269 -250
-286 -119 -14 -221 48 -273 164 -32 72 -36 199 -10 278 31 91 118 171 202 185
55 9 132 0 180 -21z"/>
<path d="M12999 1795 c-71 -39 -81 -242 -15 -304 46 -43 108 -25 143 42 19 37
19 164 -1 210 -14 34 -59 68 -88 67 -7 -1 -25 -7 -39 -15z m88 -20 c40 -28 57
-158 29 -233 -24 -69 -95 -80 -138 -21 -25 33 -34 129 -19 186 20 74 77 104
128 68z"/>
<path d="M13714 1964 c-26 -6 -104 -71 -104 -87 0 -6 15 3 33 21 101 98 241
68 278 -59 9 -30 13 -118 13 -274 l1 -230 -87 -3 -87 -3 -3 205 c-3 184 -5
206 -22 225 -13 14 -31 21 -56 21 -32 0 -39 -5 -58 -39 -20 -36 -22 -52 -22
-225 l0 -187 -87 3 -88 3 -3 303 -2 302 85 0 85 0 0 -45 c0 -25 4 -45 9 -45 8
0 5 67 -5 98 -3 9 -26 12 -91 10 l-88 -3 -3 -317 -2 -318 100 0 100 0 0 180
c0 142 3 188 16 220 17 42 45 57 83 45 32 -10 41 -65 41 -262 l0 -183 101 0
101 0 -4 253 c-3 246 -4 253 -28 301 -33 66 -66 89 -132 92 -29 1 -63 0 -74
-2z"/>
<path d="M14183 1961 c-92 -23 -146 -98 -144 -198 1 -113 66 -168 236 -203 33
-7 68 -19 78 -28 39 -34 9 -82 -53 -82 -40 0 -66 17 -80 54 -8 21 -10 22 -101
11 -82 -9 -94 -13 -97 -30 -5 -34 40 -108 85 -139 36 -25 53 -29 131 -34 114
-6 169 2 219 34 60 39 87 85 91 159 2 35 -1 78 -7 97 -23 70 -105 120 -220
135 -56 7 -101 28 -101 47 0 35 13 46 51 46 37 0 46 -5 72 -43 11 -16 20 -16
92 -7 108 15 107 14 94 47 -37 100 -95 136 -224 139 -49 2 -105 -1 -122 -5z
m188 -12 c34 -7 64 -23 89 -45 35 -31 69 -89 58 -99 -2 -2 -40 -7 -85 -11 -75
-6 -81 -5 -87 14 -9 26 -55 45 -90 36 -34 -8 -57 -42 -50 -71 7 -24 34 -35
124 -52 114 -21 162 -49 191 -109 43 -87 9 -204 -74 -256 -86 -53 -269 -47
-346 11 -31 24 -79 108 -68 119 6 6 121 24 155 24 12 0 22 -6 22 -13 0 -8 12
-24 26 -38 50 -47 144 -20 144 42 0 37 -25 53 -125 77 -102 26 -125 35 -154
62 -81 78 -61 237 37 289 53 28 153 37 233 20z"/>
<path d="M2697 1953 c-4 -3 -7 -147 -7 -320 l0 -313 99 0 c94 0 99 1 105 23 8
29 8 581 0 601 -5 13 -23 16 -98 16 -51 0 -96 -3 -99 -7z m183 -318 l0 -305
-85 0 -85 0 0 305 0 305 85 0 85 0 0 -305z"/>
<path d="M7537 1953 c-4 -3 -7 -147 -7 -320 l0 -313 100 0 100 0 0 320 0 320
-93 0 c-52 0 -97 -3 -100 -7z m183 -318 l0 -305 -90 0 -90 0 0 305 0 305 90 0
90 0 0 -305z"/>
<path d="M11404 1945 c-4 -8 -4 -122 -3 -252 4 -230 5 -240 29 -288 34 -68 77
-95 149 -95 62 0 110 22 148 68 l23 27 0 -42 0 -43 95 0 95 0 0 320 0 321 -97
-3 -98 -3 -5 -195 c-3 -135 -9 -202 -18 -218 -24 -43 -83 -48 -103 -10 -6 11
-10 95 -9 207 0 104 -2 196 -6 205 -9 23 -192 24 -200 1z m188 -204 c3 -197 3
-200 28 -226 20 -21 31 -25 55 -21 16 4 36 7 43 8 6 1 10 3 8 5 -2 3 2 20 10
38 10 25 14 82 14 215 l0 180 90 0 90 0 0 -305 0 -305 -80 0 -80 0 0 43 c0 24
-3 47 -7 50 -3 4 -27 -15 -53 -42 -39 -41 -55 -51 -95 -56 -91 -14 -160 28
-185 113 -7 20 -14 142 -17 270 l-6 232 91 0 91 0 3 -199z"/>
<path d="M12467 1953 c-4 -3 -7 -147 -7 -320 l0 -313 100 0 100 0 0 320 0 320
-93 0 c-52 0 -97 -3 -100 -7z m183 -318 l0 -306 -87 3 -88 3 -3 303 -2 302 90
0 90 0 0 -305z"/>
<path d="M8484 1040 c-16 -5 -41 -21 -55 -36 l-24 -26 0 -430 0 -430 33 -29
32 -29 400 0 400 0 32 29 33 29 0 431 0 431 -33 32 -32 33 -378 2 c-207 1
-391 -2 -408 -7z m808 -39 l33 -29 0 -422 0 -422 -33 -29 -32 -29 -390 0 -390
0 -32 29 -33 29 0 422 0 422 33 29 32 29 390 0 390 0 32 -29z"/>
<path d="M9895 1042 c-37 -13 -64 -38 -80 -75 -12 -30 -15 -99 -15 -414 0
-228 4 -393 10 -415 6 -20 22 -46 37 -58 25 -19 38 -20 419 -20 l394 0 32 29
33 29 0 431 0 431 -33 32 -32 33 -373 2 c-204 1 -381 -1 -392 -5z m787 -41
l33 -29 0 -422 0 -422 -33 -29 -32 -29 -375 0 c-214 0 -384 4 -399 10 -55 20
-56 33 -56 478 l0 410 29 31 29 31 386 0 386 0 32 -29z"/>
<path d="M11307 1038 c-26 -7 -45 -21 -58 -42 -18 -29 -19 -51 -17 -454 l3
-424 33 -29 32 -29 425 0 425 0 0 440 c0 480 -1 491 -56 527 -26 16 -58 18
-389 20 -223 1 -375 -3 -398 -9z m767 -18 c56 -21 56 -17 56 -500 l1 -445
-416 0 -417 0 -29 33 -30 33 3 417 c3 410 3 417 24 438 12 12 28 24 35 27 25
10 747 7 773 -3z"/>
<path d="M12714 1040 c-16 -5 -41 -21 -55 -36 l-24 -26 0 -430 0 -430 33 -29
32 -29 380 0 380 0 32 29 33 29 0 431 0 431 -33 32 -32 33 -358 2 c-196 1
-371 -2 -388 -7z m773 -43 l28 -27 0 -421 0 -421 -33 -29 -33 -30 -374 3 -375
3 -27 28 -28 27 -3 403 c-2 368 -1 405 15 437 31 60 31 60 435 58 l368 -3 27
-28z"/>
</g>
</svg>
