<?xml version="1.0" encoding="UTF-8"?>
<!DOCTYPE svg PUBLIC "-//W3C//DTD SVG 1.1//EN" "http://www.w3.org/Graphics/SVG/1.1/DTD/svg11.dtd">
<!-- Creator: CorelDRAW 2020 (64-Bit) -->
<svg xmlns="http://www.w3.org/2000/svg" xml:space="preserve" width="2480px" height="3508px" version="1.1" style="shape-rendering:geometricPrecision; text-rendering:geometricPrecision; image-rendering:optimizeQuality; fill-rule:evenodd; clip-rule:evenodd"
viewBox="0 0 2480 3507.43"
 xmlns:xlink="http://www.w3.org/1999/xlink"
 xmlns:xodm="http://www.corel.com/coreldraw/odm/2003">
 <defs>
  <style type="text/css">
   <![CDATA[
    .fil0 {fill:black;fill-rule:nonzero}
   ]]>
  </style>
 </defs>
 <g id="Layer_x0020_1">
  <metadata id="CorelCorpID_0Corel-Layer"/>
  <g id="_1643601841472">
   <path class="fil0" d="M1100.85 -834.71c5,8.34 104.15,168.32 173.31,279.55 33.75,54.58 61.66,100.82 61.66,102.9 0,3.34 -58.74,38.33 -164.56,97.91 -25,14.16 -57.91,32.91 -72.91,41.24 -15,8.75 -37.49,21.67 -49.99,28.33 -12.5,7.09 -39.58,22.5 -60.41,34.58 -35,20.42 -249.97,143.32 -295.8,168.73 -11.24,6.67 -104.98,59.99 -208.3,118.74 -102.91,59.16 -209.98,119.98 -237.47,135.4 -27.5,15.41 -121.24,69.15 -208.31,118.73 -87.07,50 -166.65,95.41 -177.06,101.24 -10.42,5.42 -29.16,16.25 -41.66,23.75 -12.5,7.5 -47.08,27.08 -76.24,43.74 -29.58,16.67 -52.5,30.83 -51.25,32.08 1.25,1.25 12.09,-3.33 24.17,-10 29.99,-16.66 221.22,-126.23 267.88,-153.31 20.83,-12.08 45.83,-26.67 56.24,-32.08 10.42,-5.83 25.42,-14.17 33.33,-19.17 7.92,-4.58 109.15,-62.07 224.97,-127.9 115.82,-65.82 229.14,-130.4 252.05,-143.73 40.42,-23.33 173.32,-99.57 322.05,-183.72 39.99,-22.92 74.57,-40 76.65,-38.33 2.5,1.25 3.75,0.83 2.09,-1.25 -2.09,-3.75 31.66,-23.75 285.38,-167.9 59.16,-33.33 107.07,-62.07 107.48,-64.16 0,-2.5 -95.82,-158.73 -210.39,-342.45l-25.83 -41.66 926.97 -1.25c509.94,-0.42 927.8,0 928.63,0.83 0.84,0.83 -9.58,23.75 -23.33,50.83 -13.33,27.49 -66.24,133.73 -117.07,237.05 -182.89,371.2 -255.38,516.6 -257.88,518.68 -1.25,1.25 -2.92,4.59 -3.75,7.92 -0.83,3.33 -40.41,84.57 -87.91,181.23 -47.91,96.65 -130.4,263.3 -183.31,371.2 -53.32,107.49 -103.73,209.14 -112.06,225.8l-15.42 30 -1.25 -145.81 -0.83 -145.4 -899.89 0 -899.88 0 0.83 329.96 1.25 330.37 212.47 2.08c203.73,2.09 212.06,2.5 202.06,9.17 -5.42,4.17 -12.08,7.5 -14.58,7.5 -2.08,0 -15.42,7.5 -29.16,16.66 -13.75,9.17 -26.25,16.67 -27.92,16.67 -1.25,0 -16.24,8.33 -32.91,18.75 -16.66,10.41 -32.91,18.74 -35.83,18.74 -2.91,0 -5.41,1.67 -5.41,4.17 0,2.08 -1.67,4.17 -4.17,4.17 -2.92,0 -47.08,24.58 -74.99,42.07 -3.33,2.09 -10.83,6.25 -16.66,8.75 -8.34,4.17 -47.5,26.25 -79.16,45 -17.08,10 -117.07,67.07 -135.4,77.07 -11.25,6.67 -35.83,20.83 -54.58,31.66 -18.75,11.25 -34.99,20.42 -37.08,20.42 -1.66,0 -7.91,3.33 -13.74,7.91 -9.59,6.67 -44.17,26.67 -129.99,74.58 -10.41,5.41 -20.83,12.08 -23.74,14.16 -2.92,2.5 -19.17,-3.33 -46.67,-17.5 -69.57,-34.58 -45.41,-33.33 -631.58,-34.58l-508.27 -0.83 -1.25 -182.48 -0.83 -182.06 654.08 0 654.08 0 0 -182.47c0,-180.4 0,-182.48 -11.25,-238.31l-10.83 -56.24 -32.91 -48.74c-32.5,-48.75 -32.91,-49.17 -81.66,-82.08l-49.16 -32.91 -53.74 -10.83 -54.16 -10.83 -659.91 0 -660.34 0 -56.24 10.83c-64.16,12.08 -58.74,10 -117.49,48.33 -44.16,28.33 -44.57,28.74 -77.9,79.57l-33.75 50.83 -10.83 53.32 -10.41 53.75 0 548.26 0 548.68 10.83 54.99 11.25 55 32.08 48.32c31.66,47.5 32.91,48.75 81.65,81.66l49.58 33.75 60.41 12.08 60.41 12.08 195.81 0 195.81 0 20.83 40.83c114.57,222.47 164.56,321.21 164.56,323.29 0,1.25 -198.73,2.5 -441.61,2.5l-441.61 0 0 172.06c0,168.73 0.42,173.73 10.83,226.22l10.83 53.75 32.91 49.99c32.5,49.58 33.33,50.41 77.49,79.99 57.08,37.49 47.08,32.91 104.16,46.24l49.16 11.25 465.77 2.08 465.78 2.09 44.99 87.49c24.58,47.91 76.66,150.39 116.24,227.47l71.66 139.98 0 84.16 0 83.73 41.24 0c31.66,0 41.66,-1.25 42.91,-5.83 0.83,-2.91 17.08,13.75 36.66,37.5 28.33,34.58 45,49.99 84.16,78.32 58.74,42.49 61.24,43.74 125.82,67.49 47.07,17.5 55.4,19.17 123.31,25.41l72.91 6.67 72.08 -15.42c85.82,-17.91 98.73,-23.33 209.13,-87.07 28.33,-16.25 119.57,-67.49 195.81,-109.57l77.08 -42.91 1.25 22.91 1.25 22.5 41.24 0 41.66 0 0 -47.08c0,-39.99 1.25,-47.49 7.5,-51.24 9.58,-6.25 46.66,-26.66 47.91,-26.66 0.42,0 0.42,22.08 -0.42,48.74 -0.83,27.08 -0.41,55.41 1.25,62.49l2.5 13.75 41.25 0 41.66 0 0 -87.07 0 -87.49 17.91 -10.41 17.5 -10.84 0.84 24.17c0.83,12.91 1.66,56.66 2.08,96.65l1.25 72.91 42.91 1.25 42.49 1.25 0 -78.33c0,-66.24 1.25,-80.4 7.5,-92.9 5.42,-11.25 10,-15 20.42,-15.83 24.16,-2.5 26.24,6.25 26.24,102.07l0 84.57 41.25 0 41.66 0 2.92 -19.16c4.16,-27.5 -0.84,-179.56 -6.67,-198.31 -5,-17.08 -21.25,-38.33 -34.99,-45.83 -4.59,-2.91 -17.92,-6.25 -29.58,-7.5l-20.83 -2.08 45.82 -25.41c25.42,-14.17 54.58,-30.83 65.41,-36.67 10.83,-5.83 20.42,-10.83 21.67,-10.83 1.24,0 2.5,12.09 2.5,27.08l0 27.08 41.66 0 41.66 0 0 -35.41c0,-25.41 -1.67,-35.41 -5,-35.83 -2.92,-0.41 -12.92,-0.83 -22.08,-1.25 -9.17,0 -18.75,-1.66 -21.25,-3.33 -7.5,-5 -34.16,1.25 -36.24,8.75 -1.25,5.83 -28.75,22.5 -96.66,58.74 -11.25,6.25 -32.08,18.33 -45.83,26.67 -13.74,8.33 -27.49,14.99 -29.99,14.99 -2.92,0 -5.42,1.67 -5.42,4.17 0,7.5 -7.5,4.17 -9.58,-4.17 -2.08,-7.49 -5.83,-8.33 -42.08,-8.33l-39.99 0 0 32.5 0 32.49 -16.25 9.17c-8.75,5 -17.08,9.16 -17.92,9.16 -1.24,0 -4.58,-10.83 -7.08,-23.74 -6.25,-27.08 -19.99,-48.33 -37.91,-57.49 -27.08,-13.75 -77.49,-3.34 -93.32,19.58 -6.25,8.75 -6.67,4.58 -6.67,-56.25l0 -65.82 -42.49 1.25 -42.91 1.25 -1.25 157.06 -0.83 157.48 -26.25 12.92c-14.17,7.08 -31.25,17.08 -38.33,21.66 -10,7.08 -8.33,4.17 7.08,-13.33 21.25,-23.75 37.08,-61.66 27.91,-67.49 -2.5,-1.67 -16.24,-4.17 -30.41,-5.84 -13.75,-1.25 -30.41,-3.75 -36.24,-5 -9.59,-1.66 -11.67,0 -17.5,15 -3.75,9.17 -10.42,18.75 -15,20.83 -33.33,17.92 -63.33,-20.41 -56.66,-72.07 5.42,-37.5 17.5,-52.49 43.33,-52.49 11.66,0 17.91,5.41 31.66,26.24 3.75,5.83 7.92,5.83 37.08,0.84 39.99,-7.5 50.41,-10.42 45.41,-14.17 -2.08,-1.25 -7.08,-11.66 -11.25,-22.91 -16.25,-42.91 -53.33,-64.99 -109.57,-64.99 -49.16,0 -82.49,17.08 -104.15,54.16 -10.83,17.91 -16.25,39.16 -20,75.82 -2.08,23.33 -4.16,28.33 -10,28.33 -6.25,0 -7.91,-5 -10,-32.5 -5.83,-80.82 -41.66,-120.81 -112.07,-124.98 -38.74,-2.08 -64.15,3.75 -85.4,20.41 -15.83,12.92 -15.83,12.92 -44.16,-8.74l-19.17 -14.59 -1.25 -45.82 -1.24 -45.83 -138.32 -1.25 -138.73 -0.84 0 47.91 0 47.91 45.83 0 45.82 0 0 135.4 0 135.4 47.91 0 47.91 0 0 -135.4 0 -135.4 42.91 0 42.5 0 25.83 20.42 25.83 20 -7.5 12.08c-16.67,27.49 -22.5,54.99 -20,97.07 3.75,77.07 37.5,119.15 101.66,127.48 23.74,2.92 67.49,-3.75 84.99,-12.91 20.41,-10.42 53.74,-49.16 53.74,-62.49 0,-2.92 -14.17,-6.25 -36.25,-8.34 -50.41,-4.58 -48.74,-5 -53.32,4.59 -10.42,19.99 -43.33,18.33 -56.25,-3.34 -17.5,-28.33 -18.74,-27.91 80.83,-27.91l88.74 0 2.91 15.83c5.42,33.75 32.5,69.16 63.74,84.16 21.67,10 67.49,14.58 92.07,9.16 9.59,-2.08 17.5,-3.75 17.5,-2.91 0,0.83 -10,6.25 -21.66,12.5 -12.08,6.25 -35.83,19.58 -52.08,29.57 -16.66,10 -31.24,18.34 -32.08,18.34 -0.83,0 -16.24,8.33 -33.33,18.74 -17.49,10.42 -32.91,18.75 -34.16,18.75 -1.25,0 -15.83,8.33 -32.49,18.33 -66.66,40.41 -104.16,55 -181.23,70.83l-72.08 14.99 -70.82 -6.25c-68.32,-6.25 -72.49,-7.08 -127.48,-27.91 -52.5,-20 -102.49,-47.91 -116.24,-65.41 -2.91,-3.33 -5.41,-5 -5.41,-2.91 0,7.5 -41.67,-30 -67.91,-61.24 -15.83,-18.75 -34.17,-40.42 -40.83,-47.5l-12.08 -13.75 0 -171.64 0.41 -172.06 -42.91 0 -42.91 0 -0.83 84.99c-0.42,46.66 -1.25,85.4 -2.09,85.82 -0.83,0.83 -17.91,-31.66 -38.74,-72.08 -20.41,-39.99 -69.99,-135.81 -109.15,-212.89 -39.58,-77.07 -72.08,-141.23 -72.08,-143.31 0,-1.67 90.41,-2.92 201.23,-2.92l200.81 -0.41 54.15 -11.25c54.16,-11.25 54.58,-11.25 104.16,-44.16l49.99 -33.33 31.66 -48.33 31.67 -48.33 11.24 -56.24 10.84 -55.82 0 -533.27 0 -533.68 -12.09 -60.41 -12.49 -60.41 -30.83 -46.66c-22.92,-35 -36.25,-50.83 -52.08,-62.08 -12.08,-8.33 -21.25,-15.41 -20.83,-15.83 0.83,-0.42 15.41,-8.33 32.5,-17.5 17.08,-9.58 49.99,-27.91 72.9,-40.82 22.92,-13.34 48.33,-27.5 56.25,-32.08 43.74,-25 54.57,-31.25 82.07,-47.91 16.66,-10 30.83,-17.92 32.08,-17.92 0.83,0 27.08,-15 58.74,-33.33 31.66,-18.33 57.91,-33.33 58.33,-33.33 0.83,0 14.99,-7.91 32.08,-17.91 16.66,-10 39.99,-23.33 51.24,-30 35.41,-19.99 107.07,-60.41 131.23,-73.74 45.83,-25.41 110.82,-62.91 129.57,-74.57l19.16 -12.08 87.91 0 88.32 0 0 602.84 0 603.25 -13.75 7.92c-7.08,4.17 -24.58,13.75 -38.33,21.25 -13.74,7.5 -43.74,24.58 -66.65,37.49 -22.92,13.33 -52.08,29.58 -64.58,36.66 -12.5,7.09 -49.16,27.5 -81.24,45.83 -32.08,18.33 -68.74,38.75 -81.24,45.83 -12.5,7.08 -49.16,27.5 -81.24,45.83 -137.07,77.9 -127.07,72.9 -132.48,63.32 -5.83,-9.58 -61.66,-117.9 -164.98,-319.96 -39.58,-77.49 -72.91,-139.98 -74.16,-139.15 -2.91,2.92 230.81,461.61 239.97,470.78 2.09,2.08 23.75,-7.5 50.83,-22.92 26.25,-14.99 57.91,-32.49 70.41,-39.57 35.82,-20 69.15,-38.75 255.8,-144.15 95.82,-54.58 174.98,-98.32 176.23,-97.49 0.83,0.83 1.66,186.23 2.5,411.61l0.83 409.95 284.55 1.25 284.13 0.83 0 -574.09 0 -574.09 26.24 -15c14.17,-7.92 32.5,-18.33 40.41,-22.92 27.5,-15.41 52.08,-29.16 115.82,-65.4 35.41,-19.59 66.24,-34.58 68.33,-32.92 2.5,1.25 3.33,0.84 2.08,-1.25 -1.25,-2.5 12.92,-12.91 31.66,-23.33 18.75,-10.41 61.24,-34.16 94.57,-53.32 71.25,-40.41 254.56,-143.73 302.05,-169.98 18.33,-10 35.83,-20.83 39.16,-23.75 4.58,-4.58 2.92,-15.83 -10,-70.41l-15.83 -65.4 23.75 -44.58c12.91,-24.58 33.33,-63.74 44.99,-87.49l22.08 -42.49 2.5 288.29c2.08,288.72 2.08,288.72 12.5,334.54 12.08,52.5 11.25,50.83 49.16,106.24 27.08,39.58 31.25,43.75 76.24,74.16l47.08 31.66 56.24 11.67 56.24 11.24 422.03 0.42c232.06,0 421.62,1.67 421.62,3.75 0,1.67 -7.09,11.67 -15.84,21.66 -8.74,10 -20.41,23.75 -26.24,30.42 -21.67,25.83 -32.91,37.49 -32.91,33.74 0,-2.08 -2.92,0.42 -6.67,5.42 -3.33,5 -7.92,9.16 -10,9.16 -3.75,0 -15,7.92 -27.08,19.58 -3.33,2.92 -7.5,5.42 -9.58,5.42 -2.5,0 -5,1.67 -5.83,3.33 -2.92,7.09 -84.58,55.83 -194.56,116.24 -10.42,5.83 -29.58,16.66 -42.08,24.16 -12.5,7.5 -33.33,19.17 -45.83,25.83 -12.5,7.08 -34.58,19.58 -48.74,27.91 -14.17,8.34 -27.08,15 -29.17,15 -1.66,0 -11.66,5.84 -22.08,12.5l-18.74 12.5 -302.05 0 -302.04 -0.42 -1.25 170.81 -0.84 170.4 -18.74 11.25c-10.42,5.83 -21.25,9.58 -24.17,7.91 -2.5,-1.66 -3.75,-1.66 -2.08,0.42 3.33,3.33 -92.07,60.41 -100.82,60.41 -2.08,0 -4.17,1.67 -4.17,3.33 0,2.09 -7.08,6.67 -15.41,10.42 -8.75,3.75 -24.17,12.08 -34.58,17.91 -33.33,19.58 -48.75,28.33 -81.66,47.08 -18.33,10 -73.32,41.24 -122.48,69.16 -112.07,63.74 -124.99,70.82 -158.32,88.74 -14.99,7.91 -32.08,18.33 -38.33,22.49 -6.24,4.17 -17.49,10.42 -24.99,14.17 -7.5,3.33 -20.42,10 -28.33,14.99 -7.92,4.59 -22.08,12.92 -31.25,17.92 -9.16,5 -41.66,23.33 -72.49,40.83 -30.41,17.91 -56.24,32.08 -57.49,32.08 -0.83,0 -9.17,4.99 -18.33,10.83 -9.58,5.83 -19.58,9.58 -22.92,8.33 -2.91,-1.25 -5.41,-0.42 -4.58,2.08 0.42,2.09 -4.58,7.09 -11.66,11.25 -6.67,3.75 -25.42,15 -41.67,24.17 -15.83,9.58 -37.49,21.66 -47.91,26.66 -10.41,5.42 -16.24,10.41 -13.33,11.66 2.92,0.84 7.5,-0.41 10.42,-2.5 2.91,-2.5 13.33,-8.74 23.74,-14.58 10.42,-5.41 82.49,-46.24 160.4,-90.4 77.91,-43.75 151.23,-84.99 162.48,-91.24 17.91,-10 85.82,-48.33 135.4,-76.66 7.91,-4.58 43.74,-24.58 79.16,-44.57 64.57,-36.25 79.57,-45 118.73,-66.66 11.67,-6.25 56.66,-31.66 99.99,-56.66 43.74,-24.58 91.24,-51.25 106.23,-59.16 15,-8.33 39.17,-22.08 53.75,-30.83 14.58,-8.75 27.08,-15.42 27.91,-14.58 0.83,0.83 6.67,25.41 12.5,54.99 10.83,52.91 10.83,53.74 42.08,100.41 30.83,45.82 32.49,47.49 80.4,80.4l49.16 33.75 62.5 12.5 62.9 12.49 651.59 0 651.58 0 61.66 -12.49 62.08 -12.5 47.49 -32.5c46.66,-31.66 48.33,-32.91 80.82,-81.24l32.91 -49.58 10.42 -52.49 10 -52.49 0 -544.52 0 -544.1 -10.42 -51.66c-10.41,-51.24 -10.83,-52.07 -42.91,-99.98 -31.66,-47.91 -32.91,-49.16 -79.99,-80.83l-47.91 -32.08 -57.49 -12.08 -57.49 -12.08 -266.22 0 -266.21 0 -12.09 -22.08c-6.66,-11.67 -43.74,-79.99 -82.07,-150.82 -38.33,-71.24 -78.32,-143.73 -87.9,-162.06 -10,-17.91 -18.33,-33.33 -18.33,-34.16 0,-0.83 231.63,-1.67 514.51,-1.67l514.52 0 0 -184.56c0,-178.73 -0.41,-185.81 -10.41,-235.8l-10.42 -52.08 -32.08 -47.91c-32.08,-47.08 -33.33,-48.32 -82.49,-81.65l-49.99 -34.17 -58.33 -10.83 -58.74 -11.25 -542.43 0 -542.01 0 -20.84 -38.74c-33.74,-62.08 -28.74,-61.24 -57.07,-7.92l-24.58 46.66 -64.58 0c-53.74,0.42 -74.15,2.5 -121.65,12.09l-57.08 11.66 -48.32 32.08c-47.5,31.66 -48.33,32.5 -81.24,81.24l-32.91 49.58 -12.92 63.74 -12.5 64.16 0 252.05 0.42 252.05 -48.74 91.66c-26.67,50.41 -48.33,95.82 -47.91,101.24 0,4.99 7.08,35.82 14.99,67.9 8.34,32.5 14.58,59.58 13.75,60 -0.83,0.41 -14.16,7.91 -30.41,16.66 -15.83,8.75 -40.41,22.5 -54.16,30.41 -31.66,18.33 -44.16,25.42 -74.99,42.5 -13.75,7.5 -52.91,29.58 -87.49,49.16 -34.16,19.58 -97.9,55.41 -141.65,79.99 -43.33,24.16 -85.82,48.32 -93.74,52.91 -7.91,4.58 -25.83,14.58 -39.57,22.08 -13.75,7.5 -40.42,22.91 -59.58,33.74 -18.75,11.25 -35,20.42 -35.41,20.42 -0.84,0 -22.5,12.08 -48.75,27.08 -26.24,15 -49.16,27.08 -50.82,27.08 -1.67,0 -3.34,-198.73 -3.34,-441.61l0 -441.61 304.13 0 304.13 0 0 -174.15 0 -174.56 406.2 -821.98c223.3,-452.02 406.2,-822.39 406.2,-823.23 0,-0.83 -422.03,-1.66 -937.8,-1.66 -748.66,0 -936.96,1.25 -934.47,5l0 -0.01zm1743.11 1290.26c11.25,20.83 20.83,39.16 20.83,40.41 0,0.83 -19.58,1.66 -43.74,1.66l-44.16 0 22.08 -41.24c12.08,-22.92 22.5,-40.83 22.91,-40.41 0.84,0.41 10.42,18.33 22.08,39.58zm-2902.96 60.4c50.83,10 51.66,10.42 98.74,41.67 47.07,30.83 47.91,31.66 79.98,79.57 32.5,48.33 32.5,48.74 43.33,101.24 10,51.24 10.42,55.82 10.42,232.88l0 180.4 -652.84 0.83 -653.25 1.25 -1.25 188.31 -0.83 188.73 503.27 0 503.69 0 60.82 12.5c51.66,10.41 64.16,14.58 83.74,27.49 12.5,8.33 24.58,13.75 26.66,12.5 2.09,-1.25 3.75,0.83 3.34,4.58 0,4.17 1.66,7.5 3.75,7.5 14.58,0.84 38.74,25 66.24,66.66 16.66,25 31.66,47.91 33.33,50.83 1.25,2.5 7.08,27.49 12.91,55.82l10.42 50.83 0 542.43 0 542.43 -10.42 50.41c-10,50 -10.83,51.66 -42.49,99.99 -32.5,49.16 -32.5,49.16 -80.83,80.82 -47.07,31.25 -48.74,32.08 -100.4,42.5l-52.08 10.83 -666.58 0 -666.58 0 -52.91 -10.83 -53.33 -10.83 -48.32 -32.5c-47.5,-32.08 -48.33,-32.91 -80.41,-81.24 -28.75,-43.33 -32.91,-52.49 -37.49,-78.74 -2.5,-16.25 -7.5,-41.25 -10.42,-55.83 -4.58,-19.99 -5.83,-66.65 -5.83,-192.89l0 -166.23 656.16 0 656.17 0 -0.83 -188.31 -1.25 -188.72 -520.77 -2.09c-514.93,-2.08 -521.18,-2.08 -563.26,-11.24 -37.08,-7.92 -46.66,-12.09 -75.83,-31.67 -18.74,-12.08 -32.49,-23.74 -30.41,-25.83 1.67,-1.66 0.84,-2.08 -1.66,-0.83 -9.59,5.42 -32.08,-17.5 -63.75,-64.58l-32.49 -48.74 -11.25 -57.49 -10.83 -57.49 0 -541.6 0.41 -541.6 11.67 -57.49 11.66 -57.08 30.83 -46.24c30.42,-45.83 31.67,-47.08 80.41,-79.58 48.74,-32.91 49.58,-33.33 97.91,-42.91l48.32 -9.58 671.58 -0.42 671.17 -0.41 51.66 10 0 -0.01zm2211.38 312.88l0 322.88 -304.12 0 -304.13 0 0 1018.62 0 1018.62 -277.05 0 -277.05 0 0 -1018.62 0 -1018.62 -310.38 0 -310.37 0 0 -322.88 0 -322.87 891.55 0 891.55 0 0 322.87zm1879.77 -311.63c37.07,7.5 43.74,10.84 89.98,41.25l50 32.91 31.24 47.91c30.83,47.5 31.25,48.33 42.08,101.65 10.83,52.92 10.83,56.66 10.83,232.48l0 178.31 -511.18 0c-281.63,0 -575.76,0 -654.08,0l-142.9 0 0 189.56 0 189.55 503.27 0 502.85 0 58.33 11.25 58.32 10.84 49.58 32.49c49.99,32.91 49.99,32.91 82.07,80.82l31.66 48.33 11.25 55.83 10.83 55.82 0 535.77 0 536.18 -10.83 54.58c-7.91,39.99 -13.33,58.74 -20.83,68.32 -5.41,7.08 -10,14.58 -10,16.67 0,1.66 -4.16,8.33 -9.58,14.16 -5,6.25 -14.58,20.83 -21.66,32.5 -6.67,11.66 -14.58,21.24 -17.5,21.24 -2.5,0 -5.42,1.25 -6.25,3.34 -1.67,4.16 -48.33,35.83 -72.49,49.16 -10.42,5.83 -39.58,14.58 -68.74,20.41l-50.83 10.42 -665.33 0 -664.92 0 -53.32 -10.42c-52.5,-10.83 -53.33,-10.83 -98.74,-41.24 -45.83,-30.83 -78.32,-63.74 -72.07,-73.74 1.66,-2.92 1.24,-3.75 -1.25,-2.5 -2.5,1.66 -12.92,-10 -22.92,-25.42 -16.66,-24.99 -20,-34.16 -29.99,-82.07 -10.84,-53.33 -10.84,-56.66 -10.84,-224.14l0 -169.56 654.09 0 654.08 0 0 -189.56 0 -189.56 -510.77 0 -511.18 0 -52.5 -10.83c-51.66,-10.83 -52.91,-11.25 -99.98,-42.91 -46.66,-31.25 -47.91,-32.5 -79.58,-79.57 -31.66,-47.5 -31.66,-48.33 -42.91,-102.08l-11.25 -54.16 0 -547.01 0 -547.43 11.25 -54.58 10.83 -54.99 32.5 -48.33c31.66,-47.49 32.91,-48.74 79.57,-79.99 46.25,-31.24 49.16,-32.49 95.41,-42.07l47.49 -10 683.25 0.83c670.75,0.83 684.08,0.83 723.66,9.58l0 0zm-754.49 737.41c113.32,209.97 145.4,269.55 145.4,270.8 0,0.42 -104.99,1.25 -233.31,1.25l-233.3 0 0 -183.31 0 -183.31 134.98 0 134.98 0 51.25 94.57 0 0zm-3708.28 1115.69l0 181.23 -209.56 0 -209.55 0 -26.67 -54.58c-15,-29.99 -26.66,-56.24 -25.83,-58.32 0.42,-2.09 -0.83,-3.75 -2.91,-3.75 -1.67,0 -20.83,-34.17 -42.08,-76.24 -21.25,-41.66 -50,-97.07 -63.33,-122.9l-24.99 -46.66 302.46 0 302.46 0 0 181.22 0 0zm4082.81 2.09l0 183.31 -346.62 0 -347.04 0 18.75 -11.67c10.41,-6.67 29.16,-17.5 41.66,-24.58 12.5,-6.67 44.58,-24.58 70.82,-39.58 56.66,-32.08 70.41,-39.58 149.99,-84.57 33.32,-18.75 67.49,-37.91 76.24,-42.91 8.74,-5 29.99,-20 47.91,-33.33 17.49,-12.92 34.58,-25.83 37.91,-27.91 11.66,-8.34 36.66,-35.42 62.91,-67.91l27.08 -33.75 80.4 0 79.99 -0.42 0 183.31 0 0.01zm-3862.01 1268.58l0 177.48 -36.24 -1.25 -36.66 -1.25 -1.25 -176.23 -0.84 -175.81 37.5 0 37.49 0 0 177.07 0 -0.01zm437.45 -135.39l0 41.66 -45.83 0 -45.83 0 0 135.4 0 135.4 -41.66 0 -42.08 0 1.25 -135.4 1.25 -135.4 -14.58 -0.42c-7.92,0 -27.5,-0.42 -43.74,-0.83l-29.17 -0.84 -1.25 -40.82 -1.25 -40.42 131.65 0 131.24 0 0 41.67 0 0zm645.75 22.91c0,35.41 1.67,64.57 3.33,64.57 2.09,0 7.92,-4.99 12.92,-10.83 23.33,-26.66 68.74,-32.91 92.9,-12.08 26.25,22.5 30.83,49.99 29.16,169.56l-0.83 78.33 -34.99 0 -35.42 0 -1.25 -84.99c-1.25,-76.66 -2.08,-85.83 -9.16,-93.74 -9.58,-10.83 -32.5,-11.67 -42.08,-1.67 -12.5,12.5 -14.58,26.25 -14.58,103.74l0 77.07 -37.5 -0.83 -37.49 -0.42 0 -176.64 0 -176.65 37.49 0 37.5 0 0 64.58 0 0zm532.43 -34.58l-1.25 30.41 -35.41 0 -35.41 0 -1.25 -30.41 -1.25 -30 37.91 0 37.91 0 -1.24 30 -0.01 0zm-982.79 70.82c20.41,6.25 43.75,29.58 54.16,53.33 8.33,19.17 17.91,84.99 13.33,89.57 -0.83,1.25 -37.49,2.09 -80.82,2.09l-79.16 0 2.5 14.99c3.33,19.59 12.5,33.33 28.33,41.67 15.83,7.91 30,4.99 44.16,-9.17 10,-10 10.83,-10 44.16,-5.83 18.75,2.08 34.17,4.16 34.58,4.16 0.84,0 -1.66,5.42 -5,12.09 -10.83,21.66 -39.99,44.57 -63.74,50.41 -27.91,6.66 -77.07,3.75 -95.4,-5.84 -45,-23.33 -69.58,-84.99 -59.58,-148.31 4.58,-28.33 25.41,-73.74 33.33,-72.08 2.5,0.84 4.17,-0.83 3.75,-3.74 -1.67,-6.67 32.91,-25.42 52.91,-28.75 19.58,-3.33 52.49,-0.84 72.49,5.41zm824.48 4.59c7.08,5 12.5,11.66 11.25,14.58 -1.25,2.91 -0.42,4.17 2.08,2.91 2.08,-1.24 6.67,7.5 10.42,19.59 4.99,16.66 6.25,42.91 6.25,116.65l0 95.4 -36.25 -1.25 -36.66 -1.25 -2.09 -85.82c-2.5,-94.57 -3.74,-99.57 -27.08,-99.57 -32.91,0 -38.74,18.75 -39.16,123.73l-0.41 63.75 -35.42 0 -35.41 0 0 -127.07 0 -127.07 33.33 0 33.33 0 0 18.75c0,10.42 1.25,18.75 2.5,18.75 1.67,0 11.25,-8.33 21.66,-18.75 10,-10.41 24.58,-20.41 31.67,-22.91 17.91,-5.42 43.74,-1.25 59.99,9.58l0 0zm-560.35 -5c21.67,5.83 44.16,26.66 55.41,51.24 5.42,11.25 8.75,22.08 7.92,23.33 -1.25,1.67 -11.67,4.17 -23.33,5.83 -12.08,1.67 -26.67,3.75 -32.91,5 -9.59,2.09 -12.09,0.42 -16.25,-10 -11.67,-27.49 -52.08,-28.33 -69.99,-1.24 -10,15.41 -12.5,72.49 -4.17,92.9 7.92,18.75 22.91,29.16 43.33,29.16 15.41,0 22.5,-5 38.74,-29.16 5.84,-8.75 7.5,-8.75 37.5,-4.58 17.08,2.5 31.66,5 32.49,5.83 2.92,2.91 -20.41,47.08 -31.24,58.74 -24.58,26.25 -65.83,36.25 -111.65,26.67 -47.91,-9.59 -75.83,-41.25 -85.41,-97.08 -12.08,-67.9 17.08,-137.06 64.58,-154.56 19.58,-7.08 72.49,-8.33 94.98,-2.08l0 0zm235.81 81.24c13.33,17.08 11.66,39.58 -3.75,50.82 -6.67,5 -13.33,9.17 -15,9.17 -1.25,0 -7.5,3.75 -14.17,8.33l-11.24 7.92 0.41 -17.5c2.09,-45.83 2.5,-49.16 12.92,-59.16 12.91,-13.33 20,-12.91 30.83,0.42l0 0z"/>
   <path class="fil0" d="M353.45 3616.4c-10,7.08 -17.09,20.83 -20.42,39.99l-1.66 11.67 43.74 0 44.16 0 -2.91 -13.75c-3.34,-18.75 -12.5,-35.41 -21.67,-40.41 -12.08,-6.25 -30.41,-5 -41.24,2.5l0 0zm44.99 10.83c4.58,5 8.33,11.25 8.33,13.33 0,2.5 1.25,8.75 2.5,13.75 2.5,9.58 2.09,9.58 -33.33,9.58 -39.57,0 -41.66,-1.67 -29.57,-25 11.66,-22.08 36.66,-27.91 52.07,-11.66l0 0z"/>
   <path class="fil0" d="M-1697.13 3457.25c-56.66,15.41 -88.74,69.99 -74.99,127.06 10.42,43.33 36.66,65.83 102.91,88.33 44.57,15.41 55.41,24.16 55.41,46.24 0,22.08 -11.25,32.5 -35,32.5 -24.58,0 -37.91,-10.83 -44.58,-37.92l-5.41 -21.24 -27.5 2.5c-15,1.25 -34.16,2.5 -42.49,2.5 -15,0 -15.84,0.83 -15.84,13.75 0,16.24 10.42,49.16 21.67,68.32 20,33.33 59.99,48.74 119.15,46.24 44.16,-2.08 62.49,-8.74 86.66,-32.07 23.74,-22.5 32.91,-47.5 32.91,-89.99 0,-30.42 -1.67,-40.83 -9.17,-54.58 -17.08,-32.08 -46.24,-50.83 -107.07,-69.16 -16.25,-4.58 -33.74,-11.25 -38.74,-14.16 -12.09,-7.5 -12.5,-23.75 -0.42,-35 18.33,-17.08 48.33,-5.41 57.49,22.92 5.42,16.24 5.42,16.66 60,11.66l32.07 -2.5 -2.5 -12.91c-11.24,-55.83 -31.24,-79.99 -77.9,-92.49 -26.67,-7.08 -61.24,-7.08 -86.66,0l0 0zm70.41 2.91c31.66,5 49.99,13.75 63.74,30.83 12.08,15 24.17,44.16 24.17,58.33 0,10 -1.25,10.42 -24.58,10.42 -13.34,0 -30,1.24 -36.25,2.5 -10.83,2.08 -12.92,0.83 -17.5,-12.09 -7.5,-20.83 -19.16,-29.16 -44.58,-32.08 -12.08,-1.25 -21.24,-0.83 -19.99,1.25 1.25,1.67 -0.84,5.84 -5,8.34 -7.92,6.25 -9.58,29.16 -2.5,37.49 2.5,3.33 23.74,12.5 47.49,20 63.33,20.41 87.08,36.24 104.16,68.32 12.49,24.17 12.49,75.83 -0.42,103.32 -26.25,55.41 -87.49,78.33 -160.81,59.16 -42.5,-11.25 -63.75,-33.74 -75.83,-82.07 -7.91,-29.58 -5.83,-32.5 23.33,-32.5 10.42,0 25.42,-1.25 33.75,-2.5 14.58,-2.5 15,-2.08 17.5,12.09 4.58,29.99 29.58,50.41 58.74,47.91 15,-1.25 35.83,-24.58 35.83,-40 0,-23.33 -17.5,-37.08 -71.24,-54.58 -55.83,-18.33 -84.16,-45.82 -90.82,-87.48 -5.84,-38.33 9.16,-80.83 34.57,-97.49 5.84,-4.17 10.84,-6.25 10.84,-5 0,1.67 2.91,0 6.25,-3.75 3.33,-3.33 15.41,-7.5 26.24,-8.75 10.83,-1.67 21.67,-3.33 23.75,-4.17 7.08,-2.5 11.66,-2.08 39.16,2.5z"/>
   <path class="fil0" d="M2337.78 3455.17c-36.25,8.74 -67.08,35.82 -76.24,66.65 -7.5,24.17 -5.83,62.5 2.91,82.08 14.17,31.66 40,49.16 105.82,72.9 30,10.83 37.5,15 42.92,25.42 12.91,24.99 -1.67,49.16 -30,49.16 -23.75,0 -40.83,-14.17 -47.08,-40l-5 -19.16 -40.41 2.91c-22.08,1.67 -42.08,4.17 -43.74,6.25 -5.42,5 4.58,47.08 15.83,68.74 10.41,19.17 33.74,43.33 42.08,43.75 2.91,0 10.41,2.91 16.66,6.25 16.25,8.33 80.82,8.33 109.57,-0.42 31.66,-9.16 59.99,-38.33 69.58,-70.82 14.58,-49.58 5.83,-96.66 -22.92,-125.4 -15.41,-15.42 -55.41,-35.42 -85.82,-42.5 -44.16,-10.83 -57.08,-22.5 -47.49,-43.74 5.83,-12.5 24.99,-17.92 42.07,-11.25 11.25,4.16 24.17,23.33 24.17,35.83 0,7.08 7.5,7.5 56.24,3.33l32.08 -2.5 -2.5 -18.33c-3.33,-25.41 -18.75,-54.58 -35.83,-68.33 -25,-19.99 -84.57,-29.99 -122.9,-20.83l0 0.01zm89.57 9.16c30.83,7.5 54.58,37.08 62.49,75.83 3.75,18.74 5,17.91 -39.99,21.24l-33.75 2.5 -3.33 -13.33c-2.08,-7.5 -3.33,-15.83 -3.33,-18.33 0,-2.5 -2.09,-4.58 -4.59,-4.58 -2.5,-0.42 -10.41,-2.92 -17.5,-5.84 -18.33,-7.08 -40.82,-2.08 -46.66,11.25 -2.91,5.84 -5,14.17 -5,18.33 0,10.42 14.17,23.33 28.33,26.25 6.25,1.25 17.09,4.58 23.75,7.5 7.08,2.92 13.75,5 15.42,4.58 5.83,-1.25 50.82,20 64.57,30.83 43.33,33.33 46.25,119.15 5,165.82 -17.91,19.99 -37.91,29.99 -69.99,34.16 -22.5,2.91 -76.66,-1.25 -73.74,-5.83 0.83,-1.67 -3.75,-2.92 -10,-3.34 -25.83,-0.83 -58.33,-43.33 -66.24,-86.24 -4.17,-22.91 -5.84,-21.66 44.16,-25.41l29.99 -2.08 2.92 15c6.25,34.16 43.74,55.82 72.07,41.24 15.42,-7.92 21.25,-18.33 21.25,-36.25 0,-10.41 -4.16,-17.08 -17.08,-29.57 -9.58,-9.17 -17.91,-15.42 -19.16,-14.17 -3.75,3.75 -80.41,-25 -80.41,-30.41 0,-1.67 -5.83,-6.25 -12.91,-10.42 -17.5,-10.41 -32.92,-45.41 -32.92,-74.57 0,-37.5 25,-77.91 56.25,-90.82 27.49,-11.25 74.15,-12.92 110.4,-3.34l0 0z"/>
   <path class="fil0" d="M-681.84 3458.5c-6.66,1.66 -7.08,6.25 -6.25,35.83l1.25 34.16 39.16 1.25c25.83,0.83 40.41,-0.42 42.08,-3.33 5,-8.34 4.58,-58.75 -0.42,-64.99 -4.58,-5.84 -57.49,-7.92 -75.82,-2.92l0 0zm72.08 36.66l0 31.25 -35.42 0 -35.41 0 0 -31.25 0 -31.25 35.41 0 35.42 0 0 31.25z"/>
   <path class="fil0" d="M1995.32 3458.5c-4.17,1.66 -5.42,41.66 -5.42,182.89l0 180.81 41.25 0c39.16,0 41.24,-0.41 43.74,-9.58 1.25,-5 2.5,-85.41 2.5,-178.73 0,-131.23 -1.25,-170.39 -4.99,-172.89 -5.84,-3.34 -68.33,-5.42 -77.08,-2.5l0 0zm73.74 182.47l0 177.07 -35.41 0 -35.41 0 0 -177.07 0 -177.06 35.41 0 35.41 0 0 177.06z"/>
   <path class="fil0" d="M2818.13 3458.5c-7.08,1.66 -7.5,14.16 -7.5,182.89l0 180.81 41.67 0 41.66 0 -0.84 -182.48 -1.25 -182.06 -33.33 -0.83c-18.33,0 -36.66,0.42 -40.41,1.67l0 0zm71.66 182.47l0 177.48 -36.25 -1.25 -36.66 -1.25 -1.25 -176.23 -0.83 -175.81 37.5 0 37.49 0 0 177.07 0 -0.01z"/>
   <path class="fil0" d="M3386.81 3458.5c-3.75,1.25 -5.42,12.91 -5.42,37.08l0 34.99 41.67 0 41.66 0 0 -34.99c0,-27.92 -1.25,-35.42 -6.67,-37.5 -7.91,-2.91 -63.74,-2.91 -71.24,0.42l0 0zm72.91 35.41l-1.25 30.41 -35.41 0 -35 0 -1.66 -30.41 -1.67 -30 38.33 0 37.91 0 -1.25 30 0 0z"/>
   <path class="fil0" d="M3282.24 3472.25c-9.58,7.08 -18.75,12.49 -20,12.49 -1.25,0 -10.83,5.84 -20.83,13.34 -17.5,12.49 -18.33,13.74 -18.33,34.99 0,21.66 0,22.08 -13.33,23.33l-13.75 1.25 -1.25 38.33 -1.25 38.74 14.58 0 14.17 0 1.66 71.66c1.67,82.91 6.25,99.57 32.5,112.49 15,7.5 50.41,9.58 80.41,5l15.41 -2.92 0 -21.25c0,-11.66 -1.25,-27.91 -2.5,-36.24 -2.5,-15 -2.5,-15 -20.41,-13.33 -22.08,2.5 -22.92,0.41 -22.92,-66.66l0 -48.75 22.92 0 23.33 0 -1.25 -38.74 -1.25 -38.33 -21.66 -1.25 -22.08 -1.25 0 -47.91c0,-25.83 -1.25,-47.49 -2.92,-47.49 -2.08,0 -11.25,5.83 -21.25,12.5l0 0zm43.33 91.65l22.5 0 -0.42 31.25c-0.83,34.16 -3.33,37.49 -30,34.58l-13.33 -1.25 -1.25 57.91c-0.83,50.41 0,58.74 6.25,65.82 5.42,6.25 10.42,7.5 20.42,5.83l12.91 -2.5 2.92 27.5c1.66,17.08 1.25,29.58 -1.25,32.08 -2.5,2.5 -18.75,5 -36.66,5.83 -40.42,2.09 -57.91,-5.41 -69.58,-29.99 -6.25,-13.75 -7.92,-30 -10,-88.74 -1.66,-64.99 -2.91,-71.66 -9.58,-71.66 -18.33,0 -20.41,-3.75 -20.41,-35.83l0 -30.83 14.58 0 14.58 0 0 -25 0 -24.58 28.33 -18.33c49.58,-32.08 44.57,-34.16 45.83,20.42l1.24 47.49 22.92 0 0 0z"/>
   <path class="fil0" d="M-1371.75 3557.65c-7.92,3.33 -18.33,10.83 -22.92,16.67 -12.08,14.16 -14.99,13.33 -14.99,-4.17l0 -15 -38.33 1.25 -38.75 1.25 0 181.23 0 181.22 42.91 1.25 42.5 1.25 0 -58.74c0,-32.08 1.25,-58.33 2.91,-58.33 1.67,0 7.09,4.17 12.09,8.75 10.83,10 38.74,14.58 62.07,10.42 20.42,-3.75 44.58,-27.08 56.66,-53.75 8.75,-19.16 10,-27.91 10,-75.82 0,-31.25 -2.08,-61.24 -5,-71.24 -7.5,-23.75 -29.16,-54.99 -43.74,-62.49 -18.33,-9.59 -48.75,-11.25 -65.41,-3.75l0 0zm64.16 10c16.66,9.58 37.08,44.58 43.74,74.99 7.5,36.66 3.75,97.07 -7.91,124.15 -10.84,24.58 -36.25,49.16 -55,53.33 -21.66,5 -46.66,-1.25 -61.66,-14.58 -16.66,-15.42 -21.24,-15.83 -20.83,-1.25 0.42,6.66 0.42,34.58 0,62.91l-0.41 51.24 -34.17 -1.25 -34.58 -1.25 -1.25 -176.23 -0.83 -175.81 33.33 0 33.33 0 0 19.59 0.42 19.99 15.41 -17.5c27.08,-30.41 58.33,-36.66 90.41,-18.33l0 0z"/>
   <path class="fil0" d="M-1390.92 3633.06c-19.99,21.66 -22.91,77.49 -5,104.57 15.84,23.75 47.08,20.41 57.91,-6.25 7.09,-18.33 5.84,-71.66 -2.5,-87.49 -11.66,-22.91 -34.58,-27.91 -50.41,-10.83zm45 14.16c5.83,11.25 7.08,22.08 6.25,48.33 -1.25,37.91 -8.75,51.66 -27.08,51.66 -24.17,0 -34.58,-17.5 -34.58,-58.74 0,-40.83 11.66,-59.58 35.41,-57.08 9.58,0.83 14.16,4.58 20,15.83l0 0z"/>
   <path class="fil0" d="M-1136.78 3553.9c-60.83,15.42 -93.74,63.33 -93.74,137.07 0,65.41 28.33,114.57 74.57,130.4 20.42,7.08 75.83,6.25 99.16,-1.67 23.33,-7.5 44.16,-26.24 56.24,-48.74 11.25,-22.08 12.08,-21.25 -41.24,-26.25 -29.17,-2.5 -30.83,-2.5 -41.25,8.33 -15.83,15.42 -34.99,15 -49.16,-2.08 -5.83,-7.08 -10.83,-14.16 -10.83,-16.25 0,-2.08 -1.25,-6.25 -2.5,-10 -2.08,-5.83 7.08,-6.66 78.32,-7.49l80.41 -1.25 -1.25 -31.25c-2.92,-60.41 -24.58,-102.9 -61.24,-120.82 -18.33,-8.75 -68.74,-14.58 -87.49,-10zm83.74 15.83c36.24,16.67 59.99,63.33 59.99,117.9l0 22.09 -79.16 0c-76.65,0 -79.15,0.41 -79.15,8.33 0,12.5 10,34.16 19.16,42.08 17.08,14.58 39.58,12.49 58.33,-5 8.33,-7.92 11.66,-8.34 39.16,-4.17 16.66,2.08 30.83,5 32.08,5.83 3.33,3.75 -10.42,25.42 -24.58,39.17 -25,23.74 -71.24,32.07 -119.15,21.66 -28.33,-5.83 -50.41,-25.83 -65.83,-58.74 -10.83,-23.34 -12.08,-30.83 -12.08,-65.83 0.42,-21.66 2.91,-46.66 5.83,-55.83 7.5,-21.24 29.16,-53.32 34.16,-49.99 2.09,1.25 3.34,0 2.92,-2.5 -1.67,-6.66 27.5,-21.66 48.74,-25.41 24.58,-4.58 55.41,-0.42 79.58,10.41z"/>
   <path class="fil0" d="M-1133.45 3619.31c-9.16,9.58 -22.91,42.5 -18.75,46.66 1.25,1.25 20.83,2.08 43.33,2.08 40,0 40.83,0 40.83,-9.99 0,-16.25 -8.33,-35 -18.75,-41.67 -14.16,-9.58 -35.83,-7.91 -46.66,2.92l0 0zm42.5 1.25c9.16,5.83 18.74,25 18.74,37.5 0,4.58 -8.75,5.83 -37.49,5.83 -20.42,0 -37.5,-0.84 -37.5,-1.67 0,-9.16 11.67,-31.66 20.42,-38.74 12.91,-11.25 22.08,-12.09 35.83,-2.92l0 0z"/>
   <path class="fil0" d="M-889.31 3558.9c-23.33,8.75 -32.08,15 -48.33,36.25 -20.83,27.08 -27.5,54.16 -25.41,105.4 1.25,36.25 3.33,48.33 11.25,63.33 22.08,43.32 48.32,59.15 101.65,61.65 62.91,3.34 93.74,-12.49 115.82,-59.15 13.33,-28.33 15,-40 5.83,-40 -3.33,0 -6.66,0 -7.08,-0.42 -0.83,-0.41 -15,-2.91 -31.66,-5.83l-30.42 -5 -8.33 15.83c-8.75,17.92 -18.75,24.58 -34.99,24.58 -27.08,0 -39.58,-20.83 -39.58,-65.4 0,-34.17 9.16,-55 27.08,-62.08 18.75,-7.08 39.16,0 44.99,15.42 5.42,13.74 5.83,13.74 49.99,7.08 36.25,-5.42 37.08,-6.67 23.34,-36.66 -11.67,-26.25 -30.83,-44.58 -56.66,-54.16 -27.92,-10.42 -70.83,-10.84 -97.49,-0.84l0 0zm100.4 7.92c7.92,3.33 20,10.83 26.66,17.08 13.34,12.5 33.33,51.24 28.33,55.41 -1.66,1.25 -17.08,5 -34.16,7.5 -25,4.16 -31.66,3.75 -32.91,-0.42 -0.83,-2.92 -7.08,-10.83 -13.75,-17.5 -10.41,-10 -14.58,-11.66 -28.33,-9.58 -17.5,2.08 -22.91,6.25 -35.41,25.41 -12.08,18.33 -11.25,74.58 1.67,95.41 12.08,19.58 35.41,27.49 53.32,17.91 10.83,-5.83 29.16,-24.16 26.67,-26.66 -0.42,-0.42 -0.42,-2.92 0.41,-5.42 0.84,-2.91 12.09,-2.91 35.83,0.84 37.08,5.83 35.83,4.16 25.83,30.83 -7.08,17.91 -29.99,44.16 -46.66,52.91 -15.41,8.33 -24.16,9.58 -59.57,9.58 -34.58,-0.42 -44.58,-1.67 -58.33,-9.17 -39.16,-20.83 -55.83,-51.24 -59.16,-107.07 -3.33,-53.74 8.33,-90.82 38.33,-121.65 7.5,-7.91 32.5,-19.58 47.91,-22.91 19.58,-4.17 65.41,0 83.32,7.5l0 0z"/>
   <path class="fil0" d="M-502.28 3557.65c-25,8.33 -46.66,30 -53.33,54.58 -2.91,10 -4.16,20 -2.5,21.25 2.92,3.33 40,8.74 60.83,9.16 12.08,0.42 16.25,-1.66 22.08,-12.08 13.75,-22.91 57.08,-20.83 57.08,3.33 0,14.58 -4.59,17.08 -62.5,32.5 -50.82,13.75 -65.82,22.5 -77.9,47.49 -15.83,30.83 -10.83,67.08 12.91,92.07 15.83,16.67 26.67,20.42 57.91,20.42 25.42,0 47.08,-7.5 67.91,-22.92 8.75,-6.25 9.17,-5.83 13.33,6.25l4.59 12.5 38.32 0 37.92 0 -2.92 -11.66c-1.67,-6.25 -4.17,-53.33 -5.42,-104.99 -3.33,-106.65 -6.24,-117.07 -37.49,-139.15 -16.25,-11.66 -20,-12.5 -64.16,-13.75 -33.74,-0.83 -52.91,0.84 -66.66,5l0 0zm119.15 7.92c15.42,6.66 29.17,20.83 36.25,37.91 3.33,7.92 6.25,45.83 7.91,106.24 1.25,51.66 4.17,97.07 5.84,101.23 3.33,6.67 0.83,7.5 -31.25,6.25l-34.99 -1.25 -3.75 -15.83c-2.09,-8.33 -5,-15.41 -6.25,-15.41 -1.25,0 -9.58,6.66 -17.92,14.99 -12.08,11.25 -21.66,15.84 -39.99,19.17 -58.74,10.83 -92.91,-15 -92.91,-70.41 0,-42.08 18.75,-60.41 77.91,-75.82 20.41,-5.42 45.41,-13.33 55.41,-17.5 17.08,-7.5 17.91,-8.75 15.41,-21.25 -3.75,-19.16 -13.33,-25 -36.66,-22.91 -18.33,1.66 -32.49,10 -32.49,19.16 0,2.09 -1.67,5.42 -4.17,6.67 -3.75,2.5 -66.24,-4.59 -69.57,-7.92 -0.84,-0.41 0.83,-7.5 3.33,-15.41 15.41,-44.58 47.08,-59.58 117.9,-55.41 20.41,1.25 42.91,4.58 49.99,7.5l0 0z"/>
   <path class="fil0" d="M-430.62 3698.47c-5.83,2.91 -19.58,8.75 -30.41,12.91 -27.92,10.42 -37.08,35 -19.59,52.5 13.34,13.33 34.58,10.83 52.5,-5.42 13.75,-12.5 15.41,-15.83 15.83,-38.33 0.42,-26.25 -2.5,-30 -18.33,-21.66zm14.16 16.25c-4.58,38.74 -12.08,48.32 -38.33,52.07 -14.58,2.08 -17.49,0.84 -23.74,-8.75 -10,-15.41 -2.5,-32.49 17.91,-41.24 8.33,-3.33 20,-7.92 25.83,-10.42 17.5,-7.5 20.42,-6.25 18.33,8.34l0 0z"/>
   <path class="fil0" d="M1532.05 3555.57c-35.42,8.33 -71.24,48.74 -79.99,90.82 -7.5,37.5 -2.92,90.82 10.41,117.9 22.92,45 44.58,58.75 100.4,61.24 46.25,2.09 68.33,-3.33 89.58,-22.49 25.83,-23.33 47.91,-76.24 32.49,-77.08 -2.91,0 -19.99,-2.5 -37.49,-5.41l-32.5 -5 -8.75 17.5c-7.08,15 -11.25,18.74 -23.74,20.83 -29.58,5.41 -50.83,-19.17 -50.83,-58.74 0,-45.42 16.25,-70.41 44.58,-69.58 15.41,0.42 21.66,5 32.49,23.75 4.17,7.08 7.08,7.08 39.58,2.08 19.58,-2.92 36.66,-5.83 38.33,-7.08 5.83,-3.33 -10.41,-39.16 -26.25,-57.08 -27.08,-30.83 -78.32,-43.33 -128.31,-31.66zm87.49 8.75c8.33,2.08 21.66,10 29.57,17.5 15.42,14.16 34.58,49.99 30.83,56.66 -1.24,2.08 -13.33,4.99 -26.24,6.24 -13.33,1.67 -27.5,3.75 -31.25,5 -5,1.67 -9.16,-1.25 -12.08,-7.91 -2.5,-5.83 -10.83,-13.75 -18.33,-17.92 -12.08,-6.25 -16.25,-6.66 -31.25,-2.08 -14.16,4.17 -18.74,8.33 -25.41,22.5 -9.58,21.25 -10.41,67.49 -2.08,88.32 7.91,18.75 29.58,32.5 46.24,29.16 13.33,-2.08 35.41,-23.33 35.41,-33.33 0,-7.5 -0.41,-7.5 39.58,-1.66 31.66,5 31.66,5 29.16,15.83 -1.25,5.83 -7.08,18.33 -12.49,27.5 -23.33,39.99 -54.16,54.57 -108.32,51.24 -41.66,-2.92 -65.83,-14.58 -85.41,-41.66 -21.66,-29.58 -29.99,-79.99 -20.83,-124.99 13.33,-68.32 57.49,-102.48 124.98,-96.65 12.5,1.25 29.58,4.17 37.92,6.25l0 0z"/>
   <path class="fil0" d="M1792.01 3554.32c-34.16,7.5 -57.07,27.08 -67.07,56.24 -3.75,11.25 -5.83,21.67 -4.58,22.5 1.25,1.25 14.99,3.75 30.41,6.25 15.83,2.08 32.91,4.58 38.33,5.83 7.08,1.67 10,0 12.91,-7.5 5,-13.33 13.75,-19.58 30.83,-22.49 11.25,-1.67 16.25,-0.42 23.33,6.66 4.59,4.58 8.75,12.5 8.75,16.67 0,8.33 -18.75,16.24 -79.15,32.07 -50,13.34 -70.83,36.67 -70.83,80.83 0,49.16 27.5,74.99 79.16,74.99 25.83,0 50.83,-8.33 65.41,-22.08l9.58 -8.33 4.58 12.91 4.59 13.33 39.57 0c39.17,0 39.58,0 36.67,-9.58 -2.09,-5 -4.59,-50.41 -6.25,-100.82 -2.09,-57.49 -5,-97.49 -8.75,-107.49 -7.5,-22.08 -26.67,-39.58 -51.25,-46.66 -19.16,-5.83 -76.65,-7.91 -96.24,-3.33l0 0zm103.74 9.58c6.25,2.08 10,5.83 8.75,8.33 -1.25,2.09 0,2.92 2.91,2.09 5.84,-2.09 19.17,12.91 26.25,29.16 2.08,4.58 5,50.41 6.67,102.07 1.66,51.66 4.16,97.91 5.83,102.9 2.91,9.59 2.5,9.59 -30.41,9.59l-33.75 0 -4.58 -16.67c-2.5,-9.16 -5.42,-16.66 -6.25,-16.66 -0.84,0 -7.09,5.83 -14.17,12.5 -22.49,22.91 -67.91,31.66 -97.48,19.16 -32.92,-13.33 -48.75,-58.33 -34.58,-96.24 9.16,-23.33 21.24,-32.08 60.82,-43.74 82.91,-24.17 83.33,-24.58 83.33,-38.75 0,-19.99 -5.42,-24.58 -28.75,-27.08 -20.42,-1.66 -22.08,-1.25 -35.41,13.33l-14.17 15.42 -29.99 -4.17c-16.25,-2.08 -30.83,-5 -32.5,-6.25 -1.25,-1.25 0,-10 2.92,-18.74 6.24,-21.67 32.49,-44.17 57.9,-50 22.92,-5 89.99,-2.91 106.66,3.75l0 0z"/>
   <path class="fil0" d="M1829.09 3707.22c-34.99,16.24 -42.91,29.16 -32.08,52.07 5.84,11.67 8.34,12.92 24.58,12.92 14.17,0 21.25,-2.5 31.67,-12.08 12.08,-10.42 13.33,-14.59 14.99,-39.58 2.09,-32.5 2.5,-32.5 -39.16,-13.33l0 0zm35.83 8.74c0,27.92 -21.25,52.08 -45.41,52.08 -19.16,0 -28.75,-29.58 -13.75,-42.49 6.25,-5.84 47.91,-23.33 56.24,-23.75 1.67,-0.42 2.92,6.25 2.92,14.16l0 0z"/>
   <path class="fil0" d="M2629.41 3553.9c-32.08,8.34 -55.41,24.58 -72.91,51.66 -15.83,25 -21.66,49.16 -21.66,87.91 0.41,44.16 12.49,74.57 40.41,101.65 24.99,24.58 42.91,31.25 82.49,31.25 22.49,0 31.66,-2.5 53.32,-13.75 29.17,-15 45,-33.75 56.66,-67.49 9.59,-28.33 9.59,-84.99 0,-113.32 -9.58,-27.5 -36.66,-58.33 -60.82,-68.74 -18.75,-7.92 -61.66,-12.92 -77.49,-9.17l0 0zm75.4 14.17c22.5,10.41 49.58,41.24 58.33,67.49 9.17,27.91 6.67,93.32 -5,118.73 -4.16,10 -9.16,17.92 -10.83,17.92 -2.08,0 -3.33,2.5 -3.33,5.41 0,2.92 -5,9.59 -10.83,15 -43.33,37.91 -116.24,38.75 -152.9,1.67 -47.5,-47.08 -54.16,-134.15 -15,-190.81 14.16,-20.41 22.08,-27.08 43.33,-36.25 29.58,-12.91 66.24,-12.49 96.24,0.84l-0.01 0z"/>
   <path class="fil0" d="M2634.82 3627.64c-17.5,14.58 -21.66,27.08 -21.24,64.16 0,34.16 3.33,44.58 19.99,61.24 10,9.59 32.91,8.34 45.83,-2.91 13.75,-12.08 21.25,-46.25 17.08,-79.58 -2.91,-20.41 -5.83,-27.49 -17.08,-38.74 -16.25,-16.25 -29.16,-17.5 -44.58,-4.17zm42.5 9.17c19.16,20.41 18.74,88.32 -0.42,109.15 -16.66,17.08 -42.08,10.83 -52.08,-13.33 -7.08,-17.08 -7.91,-69.57 -1.25,-82.49 13.75,-26.25 36.25,-32.08 53.75,-13.33z"/>
   <path class="fil0" d="M3592.62 3555.99c-24.17,5.83 -37.91,14.16 -56.66,35.41 -59.99,68.32 -34.16,201.64 44.16,228.3 24.58,8.33 67.91,8.75 87.49,0.42 25.41,-10.83 48.74,-32.91 61.66,-58.74 15.41,-31.67 19.16,-86.24 8.74,-123.32 -19.16,-64.99 -77.49,-98.32 -145.39,-82.07l0 0zm82.49 12.08c42.91,19.16 68.74,73.74 62.91,133.31 -6.67,71.66 -41.67,112.07 -104.16,119.15 -49.58,5.84 -92.07,-19.99 -113.73,-68.32 -13.33,-30 -15,-82.91 -4.17,-115.82 12.92,-37.91 49.16,-71.24 84.16,-77.07 22.91,-3.75 54.99,0 74.99,8.75l0 0z"/>
   <path class="fil0" d="M3605.95 3624.31c-29.58,16.25 -33.75,100.82 -6.25,126.65 19.16,17.91 44.99,10.41 59.58,-17.5 7.91,-15.41 7.91,-68.32 -0.42,-87.49 -5.83,-14.16 -24.58,-28.33 -36.66,-27.91 -2.92,0.42 -10.42,2.92 -16.25,6.25zm36.66 8.33c16.67,11.67 23.75,65.83 12.08,97.07 -9.99,28.75 -39.57,33.33 -57.49,8.75 -10.41,-13.75 -14.16,-53.74 -7.91,-77.49 8.33,-30.83 32.08,-43.33 53.32,-28.33l0 0z"/>
   <path class="fil0" d="M3903.83 3553.9c-10.83,2.5 -43.33,29.58 -43.33,36.25 0,2.5 6.25,-1.25 13.75,-8.75 42.08,-40.83 100.4,-28.33 115.82,24.58 3.75,12.5 5.41,49.16 5.41,114.15l0.42 95.82 -36.25 1.25 -36.24 1.25 -1.25 -85.4c-1.25,-76.66 -2.08,-85.83 -9.17,-93.74 -5.41,-5.83 -12.91,-8.75 -23.33,-8.75 -13.33,0 -16.24,2.08 -24.16,16.25 -8.33,15 -9.17,21.66 -9.17,93.74l0 77.9 -36.24 -1.25 -36.66 -1.25 -1.25 -126.23 -0.84 -125.82 35.42 0 35.41 0 0 18.75c0,10.41 1.66,18.75 3.75,18.75 3.33,0 2.08,-27.92 -2.09,-40.83 -1.25,-3.75 -10.83,-5 -37.91,-4.17l-36.66 1.25 -1.25 132.07 -0.83 132.48 41.66 0 41.66 0 0 -74.99c0,-59.16 1.25,-78.32 6.67,-91.65 7.08,-17.5 18.74,-23.75 34.58,-18.75 13.33,4.17 17.08,27.08 17.08,109.15l0 76.24 42.07 0 42.08 0 -1.66 -105.4c-1.25,-102.49 -1.67,-105.41 -11.67,-125.4 -13.75,-27.5 -27.49,-37.08 -54.99,-38.33 -12.08,-0.42 -26.25,0 -30.83,0.83z"/>
   <path class="fil0" d="M4099.22 3555.15c-38.33,9.58 -60.83,40.83 -59.99,82.49 0.41,47.08 27.49,69.99 98.32,84.57 13.75,2.92 28.33,7.92 32.5,11.67 16.24,14.16 3.75,34.16 -22.08,34.16 -16.67,0 -27.5,-7.08 -33.33,-22.49 -3.34,-8.75 -4.17,-9.17 -42.08,-4.59 -34.16,3.75 -39.16,5.42 -40.41,12.5 -2.09,14.16 16.66,44.99 35.41,57.91 15,10.41 22.08,12.08 54.58,14.16 47.49,2.5 70.4,-0.83 91.23,-14.16 25,-16.25 36.25,-35.41 37.92,-66.24 0.83,-14.58 -0.42,-32.5 -2.92,-40.41 -9.58,-29.17 -43.74,-50 -91.65,-56.25 -23.34,-2.91 -42.08,-11.66 -42.08,-19.58 0,-14.58 5.41,-19.16 21.24,-19.16 15.42,0 19.17,2.08 30,17.91 4.58,6.67 8.33,6.67 38.33,2.92 44.99,-6.25 44.58,-5.84 39.16,-19.58 -15.41,-41.67 -39.58,-56.66 -93.32,-57.91 -20.41,-0.84 -43.75,0.41 -50.83,2.08l0 0zm78.32 5c14.17,2.92 26.67,9.58 37.08,18.75 14.58,12.91 28.75,37.08 24.17,41.24 -0.84,0.84 -16.67,2.92 -35.42,4.59 -31.24,2.5 -33.74,2.08 -36.24,-5.83 -3.75,-10.84 -22.92,-18.75 -37.5,-15 -14.16,3.33 -23.74,17.5 -20.83,29.58 2.92,10 14.17,14.58 51.66,21.66 47.5,8.75 67.49,20.41 79.57,45.41 17.92,36.25 3.75,84.99 -30.83,106.65 -35.82,22.08 -112.06,19.59 -144.14,-4.58 -12.92,-10 -32.92,-44.99 -28.33,-49.58 2.5,-2.5 50.41,-10 64.57,-10 5,0 9.17,2.5 9.17,5.42 0,3.33 5,10 10.83,15.83 20.83,19.58 59.99,8.33 59.99,-17.5 0,-15.41 -10.41,-22.08 -52.07,-32.08 -42.5,-10.83 -52.08,-14.58 -64.16,-25.83 -33.75,-32.49 -25.42,-98.73 15.41,-120.4 22.08,-11.66 63.74,-15.41 97.07,-8.33l0 0z"/>
   <path class="fil0" d="M-686.01 3558.48c-1.66,1.25 -2.91,61.25 -2.91,133.32l0 130.4 41.24 0c39.16,0 41.25,-0.42 43.75,-9.58 3.33,-12.08 3.33,-242.05 0,-250.39 -2.09,-5.41 -9.58,-6.66 -40.83,-6.66 -21.25,0 -40,1.25 -41.24,2.91l-0.01 0zm76.25 132.49l0 127.07 -35.42 0 -35.41 0 0 -127.07 0 -127.07 35.41 0 35.42 0 0 127.07z"/>
   <path class="fil0" d="M1330.41 3558.48c-1.67,1.25 -2.92,61.25 -2.92,133.32l0 130.4 41.66 0 41.66 0 0 -133.32 0 -133.31 -38.74 0c-21.67,0 -40.41,1.25 -41.66,2.91l0 0zm76.24 132.49l0 127.07 -37.5 0 -37.5 0 0 -127.07 0 -127.07 37.5 0 37.5 0 0 127.07z"/>
   <path class="fil0" d="M2941.45 3561.82c-1.67,3.33 -1.67,50.83 -1.25,104.99 1.67,95.82 2.08,99.98 12.08,119.98 14.17,28.33 32.08,39.58 62.08,39.58 25.83,0 45.83,-9.17 61.66,-28.33l9.58 -11.25 0 17.5 0 17.91 39.58 0 39.58 0 0 -133.31 0 -133.74 -40.41 1.25 -40.83 1.25 -2.08 81.24c-1.25,56.24 -3.75,84.16 -7.5,90.82 -10,17.92 -34.58,20 -42.91,4.17 -2.5,-4.58 -4.17,-39.58 -3.75,-86.24 0,-43.33 -0.84,-81.66 -2.5,-85.4 -3.75,-9.59 -79.99,-10 -83.33,-0.42l0 0zm78.32 84.99c1.25,82.07 1.25,83.32 11.67,94.15 8.33,8.75 12.91,10.42 22.91,8.75 6.67,-1.67 15,-2.92 17.92,-3.33 2.5,-0.42 4.16,-1.25 3.33,-2.09 -0.83,-1.24 0.83,-8.33 4.17,-15.83 4.16,-10.41 5.83,-34.16 5.83,-89.57l0 -74.99 37.49 0 37.5 0 0 127.07 0 127.06 -33.33 0 -33.33 0 0 -17.91c0,-10 -1.25,-19.58 -2.91,-20.83 -1.25,-1.67 -11.25,6.25 -22.08,17.5 -16.25,17.08 -22.92,21.25 -39.58,23.33 -37.91,5.83 -66.66,-11.67 -77.08,-47.08 -2.91,-8.33 -5.83,-59.16 -7.08,-112.48l-2.5 -96.66 37.91 0 37.92 0 1.25 82.91 -0.01 0z"/>
   <path class="fil0" d="M3384.31 3558.48c-1.67,1.25 -2.92,61.25 -2.92,133.32l0 130.4 41.67 0 41.66 0 0 -133.32 0 -133.31 -38.75 0c-21.66,0 -40.41,1.25 -41.66,2.91l0 0zm76.24 132.49l0 127.48 -36.24 -1.25 -36.67 -1.25 -1.24 -126.23 -0.84 -125.82 37.5 0 37.49 0 0 127.07z"/>
   <path class="fil0" d="M1724.94 3938.85c-6.67,2.09 -17.08,8.75 -22.92,15l-10 10.83 0 179.15 0 179.14 13.75 12.08 13.34 12.09 166.64 0 166.65 0 13.33 -12.09 13.75 -12.08 0 -179.56 0 -179.56 -13.75 -13.33 -13.33 -13.75 -157.48 -0.83c-86.24,-0.42 -162.9,0.83 -169.98,2.91l0 0zm336.62 16.25l13.75 12.08 0 175.81 0 175.82 -13.75 12.08 -13.33 12.08 -162.48 0 -162.48 0 -13.33 -12.08 -13.75 -12.08 0 -175.82 0 -175.81 13.75 -12.08 13.33 -12.08 162.48 0 162.48 0 13.33 12.08z"/>
   <path class="fil0" d="M2312.78 3938.02c-15.41,5.42 -26.66,15.83 -33.33,31.25 -5,12.49 -6.25,41.24 -6.25,172.47 0,94.99 1.67,163.73 4.17,172.9 2.5,8.33 9.16,19.16 15.41,24.16 10.42,7.92 15.84,8.34 174.56,8.34l164.15 0 13.33 -12.09 13.75 -12.08 0 -179.56 0 -179.56 -13.75 -13.33 -13.33 -13.75 -155.4 -0.83c-84.99,-0.42 -158.73,0.41 -163.31,2.08l0 0zm327.88 17.08l13.74 12.08 0 175.81 0 175.82 -13.74 12.08 -13.34 12.08 -156.23 0c-89.15,0 -159.98,-1.67 -166.23,-4.17 -22.91,-8.33 -23.33,-13.74 -23.33,-199.14l0 -170.81 12.09 -12.91 12.08 -12.92 160.81 0 160.81 0 13.34 12.08 0 0z"/>
   <path class="fil0" d="M2901.04 3939.69c-10.83,2.91 -18.75,8.75 -24.16,17.49 -7.5,12.09 -7.92,21.25 -7.09,189.15l1.25 176.64 13.75 12.08 13.33 12.09 177.06 0 177.07 0 0 -183.31c0,-199.98 -0.42,-204.56 -23.33,-219.56 -10.84,-6.66 -24.17,-7.5 -162.07,-8.33 -92.9,-0.42 -156.23,1.25 -165.81,3.75l0 0zm319.54 7.5c23.33,8.74 23.33,7.08 23.33,208.3l0.42 185.4 -173.31 0 -173.73 0 -12.08 -13.75 -12.5 -13.75 1.25 -173.73c1.25,-170.81 1.25,-173.73 10,-182.48 5,-5 11.66,-10 14.58,-11.24 10.41,-4.17 311.21,-2.92 322.04,1.24l0 0.01z"/>
   <path class="fil0" d="M3487.21 3938.85c-6.66,2.09 -17.08,8.75 -22.91,15l-10 10.83 0 179.15 0 179.14 13.75 12.08 13.33 12.09 158.32 0 158.31 0 13.33 -12.09 13.75 -12.08 0 -179.56 0 -179.56 -13.75 -13.33 -13.33 -13.75 -149.15 -0.83c-81.65,-0.42 -154.56,0.83 -161.64,2.91l-0.01 0zm322.05 17.92l11.66 11.25 0 175.39 0 175.39 -13.75 12.09 -13.74 12.49 -155.82 -1.24 -156.23 -1.25 -11.25 -11.67 -11.66 -11.25 -1.25 -167.89c-0.84,-153.32 -0.42,-168.73 6.25,-182.06 12.91,-25 12.91,-25 181.22,-24.17l153.32 1.25 11.25 11.67 0 0z"/>
  </g>
 </g>
</svg>
