<?xml version="1.0" encoding="UTF-8"?>
<!DOCTYPE svg PUBLIC "-//W3C//DTD SVG 1.1//EN" "http://www.w3.org/Graphics/SVG/1.1/DTD/svg11.dtd">
<!-- Creator: CorelDRAW 2020 (64-Bit) -->
<svg xmlns="http://www.w3.org/2000/svg" xml:space="preserve" width="2480px" height="3508px" version="1.1" style="shape-rendering:geometricPrecision; text-rendering:geometricPrecision; image-rendering:optimizeQuality; fill-rule:evenodd; clip-rule:evenodd"
viewBox="0 0 2480 3507.43"
 xmlns:xlink="http://www.w3.org/1999/xlink"
 xmlns:xodm="http://www.corel.com/coreldraw/odm/2003">
 <defs>
  <style type="text/css">
   <![CDATA[
    .fil0 {fill:black;fill-rule:nonzero}
   ]]>
  </style>
 </defs>
 <g id="Layer_x0020_1">
  <metadata id="CorelCorpID_0Corel-Layer"/>
  <g id="_1643609244512">
   <path class="fil0" d="M1166.17 664.8c1.73,2.85 36.18,57.65 60.2,95.75 11.72,18.7 21.42,34.54 21.42,35.25 0,1.14 -20.41,13.13 -57.17,33.54 -8.68,4.85 -20.11,11.27 -25.32,14.12 -5.21,3 -13.02,7.42 -17.37,9.71 -4.34,2.42 -13.74,7.7 -20.98,11.84 -12.15,7 -86.83,49.09 -102.75,57.8 -3.9,2.28 -36.46,20.55 -72.35,40.67 -35.75,20.26 -72.94,41.1 -82.49,46.38 -9.55,5.28 -42.11,23.69 -72.36,40.67 -30.24,17.13 -57.88,32.68 -61.5,34.68 -3.62,1.85 -10.13,5.56 -14.47,8.13 -4.34,2.57 -16.35,9.28 -26.48,14.99 -10.28,5.7 -18.24,10.56 -17.8,10.98 0.43,0.43 4.19,-1.14 8.39,-3.42 10.42,-5.71 76.84,-43.24 93.05,-52.52 7.24,-4.13 15.92,-9.13 19.54,-10.98 3.62,-2 8.83,-4.86 11.57,-6.57 2.75,-1.57 37.92,-21.26 78.15,-43.81 40.23,-22.55 79.59,-44.67 87.55,-49.23 14.04,-7.99 60.2,-34.11 111.86,-62.94 13.9,-7.84 25.91,-13.7 26.63,-13.12 0.87,0.42 1.31,0.28 0.73,-0.43 -0.73,-1.29 10.99,-8.14 99.12,-57.51 20.55,-11.42 37.2,-21.27 37.34,-21.98 0,-0.86 -33.28,-54.37 -73.08,-117.3l-8.97 -14.27 321.99 -0.43c177.13,-0.14 322.27,0 322.56,0.28 0.29,0.29 -3.33,8.14 -8.1,17.41 -4.63,9.42 -23.01,45.81 -40.67,81.2 -63.53,127.15 -88.71,176.96 -89.57,177.67 -0.44,0.43 -1.02,1.57 -1.31,2.71 -0.29,1.14 -14.03,28.97 -30.53,62.08 -16.64,33.11 -45.3,90.19 -63.67,127.15 -18.53,36.82 -36.04,71.64 -38.93,77.35l-5.36 10.27 -0.43 -49.95 -0.29 -49.8 -312.58 0 -312.58 0 0.29 113.02 0.43 113.17 73.8 0.71c70.77,0.72 73.66,0.86 70.19,3.14 -1.88,1.43 -4.2,2.57 -5.06,2.57 -0.73,0 -5.36,2.57 -10.13,5.71 -4.78,3.14 -9.12,5.71 -9.7,5.71 -0.43,0 -5.64,2.85 -11.43,6.42 -5.79,3.57 -11.43,6.42 -12.45,6.42 -1.01,0 -1.88,0.57 -1.88,1.43 0,0.71 -0.58,1.42 -1.45,1.42 -1.01,0 -16.35,8.42 -26.04,14.42 -1.16,0.71 -3.77,2.14 -5.79,3 -2.9,1.42 -16.5,8.99 -27.5,15.41 -5.93,3.42 -40.66,22.97 -47.03,26.4 -3.91,2.28 -12.44,7.13 -18.96,10.84 -6.51,3.86 -12.15,7 -12.88,7 -0.58,0 -2.75,1.14 -4.77,2.71 -3.33,2.28 -15.34,9.13 -45.15,25.54 -3.62,1.86 -7.24,4.14 -8.25,4.85 -1.01,0.86 -6.66,-1.14 -16.21,-5.99 -24.17,-11.84 -15.77,-11.42 -219.39,-11.84l-176.55 -0.29 -0.43 -62.5 -0.29 -62.37 227.2 0 227.2 0 0 -62.5c0,-61.8 0,-62.51 -3.91,-81.63l-3.76 -19.27 -11.43 -16.69c-11.29,-16.7 -11.43,-16.84 -28.36,-28.12l-17.08 -11.27 -18.67 -3.71 -18.81 -3.71 -229.23 0 -229.37 0 -19.53 3.71c-22.29,4.14 -20.41,3.43 -40.81,16.55 -15.34,9.71 -15.49,9.85 -27.06,27.26l-11.73 17.41 -3.76 18.27 -3.62 18.41 0 187.8 0 187.94 3.77 18.84 3.9 18.84 11.15 16.55c10.99,16.27 11.43,16.7 28.36,27.97l17.22 11.56 20.98 4.14 20.99 4.14 68.01 0 68.02 0 7.23 13.98c39.8,76.21 57.17,110.03 57.17,110.74 0,0.43 -69.03,0.86 -153.4,0.86l-153.4 0 0 58.93c0,57.8 0.15,59.51 3.77,77.49l3.76 18.41 11.43 17.13c11.29,16.98 11.58,17.26 26.92,27.4 19.82,12.84 16.35,11.27 36.18,15.84l17.07 3.85 161.79 0.71 161.79 0.72 15.63 29.96c8.54,16.41 26.63,51.52 40.38,77.92l24.89 47.95 0 28.83 0 28.68 14.32 0c11,0 14.48,-0.43 14.91,-2 0.29,-1 5.93,4.71 12.73,12.85 9.84,11.84 15.63,17.12 29.24,26.82 20.4,14.56 21.27,14.99 43.7,23.12 16.35,6 19.25,6.57 42.83,8.71l25.33 2.28 25.03 -5.28c29.82,-6.14 34.3,-7.99 72.65,-29.82 9.84,-5.57 41.53,-23.12 68.02,-37.54l26.77 -14.7 0.43 7.85 0.44 7.71 14.32 0 14.47 0 0 -16.13c0,-13.7 0.44,-16.26 2.61,-17.55 3.33,-2.14 16.21,-9.13 16.64,-9.13 0.15,0 0.15,7.56 -0.14,16.69 -0.29,9.28 -0.15,18.98 0.43,21.41l0.87 4.71 14.32 0 14.48 0 0 -29.83 0 -29.96 6.22 -3.57 6.08 -3.71 0.29 8.28c0.29,4.42 0.58,19.4 0.72,33.1l0.43 24.98 14.91 0.42 14.76 0.43 0 -26.83c0,-22.69 0.43,-27.54 2.61,-31.82 1.88,-3.85 3.47,-5.14 7.09,-5.42 8.39,-0.86 9.11,2.14 9.11,34.96l0 28.97 14.33 0 14.47 0 1.01 -6.56c1.45,-9.42 -0.29,-61.51 -2.31,-67.93 -1.74,-5.85 -7.38,-13.13 -12.16,-15.7 -1.59,-1 -6.22,-2.14 -10.27,-2.57l-7.24 -0.71 15.92 -8.71c8.83,-4.85 18.96,-10.56 22.72,-12.56 3.76,-1.99 7.09,-3.71 7.53,-3.71 0.43,0 0.87,4.14 0.87,9.28l0 9.28 14.47 0 14.47 0 0 -12.13c0,-8.71 -0.58,-12.13 -1.74,-12.28 -1.01,-0.14 -4.48,-0.28 -7.67,-0.42 -3.18,0 -6.51,-0.58 -7.38,-1.15 -2.6,-1.71 -11.87,0.43 -12.59,3 -0.43,2 -9.98,7.71 -33.57,20.12 -3.91,2.14 -11.15,6.28 -15.92,9.14 -4.78,2.85 -9.55,5.13 -10.42,5.13 -1.01,0 -1.88,0.57 -1.88,1.43 0,2.57 -2.61,1.43 -3.33,-1.43 -0.72,-2.57 -2.03,-2.85 -14.62,-2.85l-13.89 0 0 11.13 0 11.13 -5.64 3.14c-3.04,1.71 -5.94,3.14 -6.23,3.14 -0.43,0 -1.59,-3.71 -2.46,-8.13 -2.17,-9.28 -6.94,-16.56 -13.17,-19.7 -9.4,-4.71 -26.91,-1.14 -32.41,6.71 -2.17,3 -2.32,1.57 -2.32,-19.26l0 -22.55 -14.76 0.43 -14.9 0.42 -0.44 53.8 -0.29 53.95 -9.11 4.42c-4.92,2.43 -10.86,5.85 -13.32,7.42 -3.47,2.43 -2.89,1.43 2.46,-4.57 7.38,-8.13 12.88,-21.12 9.7,-23.11 -0.87,-0.58 -5.64,-1.43 -10.56,-2 -4.78,-0.43 -10.57,-1.29 -12.59,-1.71 -3.33,-0.58 -4.06,0 -6.08,5.13 -1.31,3.14 -3.62,6.42 -5.21,7.14 -11.58,6.13 -22,-6.99 -19.68,-24.69 1.88,-12.84 6.07,-17.98 15.05,-17.98 4.05,0 6.22,1.85 10.99,8.99 1.31,2 2.76,2 12.88,0.29 13.9,-2.57 17.52,-3.57 15.78,-4.86 -0.73,-0.42 -2.46,-3.99 -3.91,-7.85 -5.64,-14.69 -18.52,-22.26 -38.06,-22.26 -17.07,0 -28.65,5.85 -36.18,18.55 -3.76,6.14 -5.64,13.42 -6.94,25.98 -0.73,7.99 -1.45,9.7 -3.48,9.7 -2.17,0 -2.75,-1.71 -3.47,-11.13 -2.03,-27.69 -14.47,-41.39 -38.93,-42.81 -13.46,-0.72 -22.28,1.28 -29.66,6.99 -5.5,4.42 -5.5,4.42 -15.34,-3l-6.66 -4.99 -0.43 -15.7 -0.44 -15.7 -48.04 -0.42 -48.19 -0.29 0 16.41 0 16.41 15.92 0 15.92 0 0 46.38 0 46.38 16.64 0 16.64 0 0 -46.38 0 -46.38 14.9 0 14.76 0 8.98 6.99 8.97 6.85 -2.61 4.14c-5.78,9.42 -7.81,18.84 -6.94,33.25 1.3,26.4 13.02,40.82 35.31,43.67 8.25,1 23.44,-1.28 29.52,-4.42 7.09,-3.57 18.67,-16.84 18.67,-21.41 0,-1 -4.92,-2.14 -12.59,-2.85 -17.51,-1.57 -16.93,-1.72 -18.53,1.57 -3.61,6.85 -15.05,6.28 -19.53,-1.14 -6.08,-9.71 -6.51,-9.57 28.07,-9.57l30.83 0 1.01 5.43c1.88,11.56 11.29,23.69 22.14,28.82 7.52,3.43 23.44,5 31.98,3.14 3.33,-0.71 6.08,-1.28 6.08,-1 0,0.29 -3.47,2.14 -7.52,4.29 -4.2,2.14 -12.45,6.7 -18.09,10.13 -5.79,3.42 -10.86,6.28 -11.15,6.28 -0.29,0 -5.64,2.85 -11.57,6.42 -6.08,3.57 -11.44,6.42 -11.87,6.42 -0.43,0 -5.5,2.85 -11.29,6.28 -23.15,13.84 -36.18,18.84 -62.95,24.26l-25.03 5.14 -24.61 -2.14c-23.73,-2.15 -25.17,-2.43 -44.28,-9.57 -18.23,-6.85 -35.6,-16.41 -40.37,-22.4 -1.02,-1.14 -1.88,-1.71 -1.88,-1 0,2.57 -14.47,-10.27 -23.59,-20.98 -5.5,-6.42 -11.87,-13.84 -14.18,-16.27l-4.2 -4.71 0 -58.79 0.14 -58.94 -14.9 0 -14.91 0 -0.29 29.12c-0.14,15.98 -0.43,29.25 -0.72,29.39 -0.29,0.29 -6.22,-10.84 -13.46,-24.69 -7.09,-13.7 -24.31,-46.52 -37.91,-72.92 -13.75,-26.4 -25.04,-48.38 -25.04,-49.09 0,-0.57 31.4,-1 69.9,-1l69.75 -0.14 18.81 -3.85c18.82,-3.86 18.96,-3.86 36.18,-15.13l17.37 -11.42 10.99 -16.55 11 -16.55 3.91 -19.27 3.76 -19.12 0 -182.66 0 -182.81 -4.19 -20.69 -4.35 -20.7 -10.71 -15.98c-7.95,-11.99 -12.59,-17.41 -18.08,-21.26 -4.2,-2.86 -7.38,-5.28 -7.24,-5.42 0.29,-0.15 5.35,-2.86 11.29,-6 5.93,-3.28 17.36,-9.56 25.32,-13.98 7.96,-4.57 16.79,-9.42 19.54,-10.99 15.19,-8.56 18.96,-10.7 28.51,-16.41 5.79,-3.43 10.71,-6.14 11.14,-6.14 0.29,0 9.41,-5.14 20.4,-11.42 11,-6.27 20.12,-11.41 20.27,-11.41 0.28,0 5.2,-2.71 11.14,-6.14 5.79,-3.42 13.89,-7.99 17.8,-10.27 12.3,-6.85 37.19,-20.7 45.58,-25.26 15.92,-8.71 38.5,-21.55 45.01,-25.55l6.66 -4.13 30.53 0 30.68 0 0 206.49 0 206.64 -4.78 2.71c-2.46,1.43 -8.53,4.71 -13.31,7.28 -4.78,2.57 -15.19,8.42 -23.15,12.84 -7.96,4.57 -18.09,10.13 -22.44,12.56 -4.34,2.42 -17.07,9.42 -28.21,15.7 -11.15,6.28 -23.88,13.27 -28.22,15.69 -4.34,2.43 -17.08,9.42 -28.22,15.7 -47.61,26.69 -44.14,24.98 -46.02,21.69 -2.03,-3.28 -21.42,-40.38 -57.31,-109.59 -13.75,-26.55 -25.32,-47.95 -25.76,-47.67 -1.01,1 80.17,158.12 83.36,161.26 0.72,0.71 8.25,-2.57 17.65,-7.85 9.12,-5.14 20.12,-11.13 24.46,-13.56 12.45,-6.85 24.02,-13.27 88.85,-49.37 33.29,-18.7 60.78,-33.68 61.22,-33.4 0.29,0.29 0.58,63.79 0.87,141l0.29 140.42 98.84 0.43 98.69 0.28 0 -196.65 0 -196.64 9.12 -5.14c4.92,-2.71 11.28,-6.28 14.03,-7.85 9.55,-5.28 18.09,-9.99 40.23,-22.4 12.3,-6.71 23.01,-11.85 23.74,-11.28 0.87,0.43 1.15,0.29 0.72,-0.43 -0.43,-0.85 4.49,-4.42 11,-7.99 6.51,-3.57 21.27,-11.7 32.85,-18.26 24.74,-13.85 88.42,-49.24 104.92,-58.23 6.36,-3.42 12.44,-7.13 13.6,-8.13 1.59,-1.57 1.01,-5.43 -3.47,-24.12l-5.5 -22.4 8.25 -15.27c4.48,-8.42 11.57,-21.84 15.62,-29.97l7.67 -14.56 0.87 98.75c0.73,98.9 0.73,98.9 4.34,114.6 4.2,17.98 3.91,17.41 17.08,36.39 9.41,13.55 10.85,14.98 26.48,25.4l16.35 10.84 19.54 4 19.54 3.85 146.59 0.15c80.61,0 146.45,0.57 146.45,1.28 0,0.57 -2.46,4 -5.5,7.42 -3.04,3.43 -7.09,8.13 -9.11,10.42 -7.53,8.85 -11.44,12.84 -11.44,11.56 0,-0.72 -1.01,0.14 -2.31,1.85 -1.16,1.71 -2.75,3.14 -3.47,3.14 -1.31,0 -5.22,2.71 -9.41,6.71 -1.16,1 -2.61,1.85 -3.33,1.85 -0.87,0 -1.74,0.57 -2.03,1.15 -1.01,2.42 -29.37,19.12 -67.58,39.81 -3.62,2 -10.27,5.71 -14.61,8.28 -4.34,2.57 -11.58,6.56 -15.92,8.84 -4.34,2.43 -12.01,6.71 -16.93,9.57 -4.92,2.85 -9.41,5.13 -10.13,5.13 -0.58,0 -4.05,2 -7.67,4.29l-6.51 4.28 -104.92 0 -104.92 -0.15 -0.43 58.51 -0.29 58.37 -6.52 3.85c-3.61,2 -7.38,3.28 -8.39,2.71 -0.87,-0.57 -1.3,-0.57 -0.72,0.15 1.16,1.14 -31.98,20.69 -35.02,20.69 -0.73,0 -1.45,0.57 -1.45,1.14 0,0.71 -2.46,2.28 -5.35,3.57 -3.04,1.28 -8.4,4.14 -12.02,6.13 -11.57,6.71 -16.93,9.71 -28.36,16.13 -6.37,3.42 -25.47,14.13 -42.55,23.69 -38.92,21.83 -43.41,24.26 -54.99,30.39 -5.21,2.72 -11.14,6.28 -13.31,7.71 -2.17,1.43 -6.08,3.57 -8.68,4.85 -2.61,1.15 -7.09,3.43 -9.84,5.14 -2.75,1.57 -7.67,4.42 -10.86,6.14 -3.18,1.71 -14.47,7.99 -25.18,13.98 -10.56,6.14 -19.53,10.99 -19.97,10.99 -0.29,0 -3.18,1.71 -6.36,3.71 -3.33,2 -6.81,3.28 -7.96,2.86 -1.02,-0.43 -1.89,-0.15 -1.6,0.71 0.15,0.71 -1.59,2.42 -4.05,3.85 -2.31,1.29 -8.83,5.14 -14.47,8.28 -5.5,3.28 -13.02,7.42 -16.64,9.13 -3.62,1.86 -5.65,3.57 -4.63,4 1.01,0.28 2.6,-0.15 3.62,-0.86 1.01,-0.86 4.63,-3 8.24,-4.99 3.62,-1.86 28.66,-15.84 55.72,-30.97 27.06,-14.98 52.53,-29.11 56.44,-31.25 6.22,-3.43 29.81,-16.56 47.03,-26.26 2.75,-1.57 15.19,-8.42 27.49,-15.27 22.43,-12.42 27.64,-15.41 41.25,-22.83 4.05,-2.14 19.68,-10.85 34.73,-19.41 15.19,-8.42 31.69,-17.55 36.9,-20.26 5.21,-2.86 13.6,-7.57 18.67,-10.57 5.06,-2.99 9.4,-5.28 9.69,-4.99 0.29,0.29 2.32,8.7 4.35,18.84 3.76,18.12 3.76,18.41 14.61,34.39 10.71,15.7 11.29,16.27 27.93,27.54l17.08 11.56 21.71 4.28 21.85 4.28 226.33 0 226.33 0 21.42 -4.28 21.56 -4.28 16.5 -11.13c16.2,-10.85 16.78,-11.27 28.07,-27.83l11.43 -16.98 3.62 -17.98 3.47 -17.98 0 -186.52 0 -186.37 -3.61 -17.7c-3.62,-17.55 -3.77,-17.84 -14.91,-34.25 -11,-16.41 -11.43,-16.84 -27.78,-27.68l-16.65 -10.99 -19.97 -4.14 -19.97 -4.14 -92.47 0 -92.47 0 -4.2 -7.56c-2.31,-4 -15.19,-27.4 -28.51,-51.66 -13.31,-24.4 -27.2,-49.23 -30.53,-55.51 -3.47,-6.14 -6.37,-11.42 -6.37,-11.7 0,-0.29 80.46,-0.58 178.72,-0.58l178.73 0 0 -63.22c0,-61.22 -0.15,-63.64 -3.62,-80.77l-3.62 -17.83 -11.14 -16.42c-11.15,-16.12 -11.58,-16.55 -28.66,-27.96l-17.36 -11.71 -20.26 -3.71 -20.41 -3.85 -188.41 0 -188.28 0 -7.23 -13.27c-11.72,-21.27 -9.99,-20.98 -19.83,-2.71l-8.53 15.98 -22.44 0c-18.66,0.14 -25.75,0.86 -42.25,4.14l-19.83 3.99 -16.78 10.99c-16.5,10.85 -16.79,11.13 -28.22,27.83l-11.44 16.98 -4.48 21.84 -4.34 21.97 0 86.34 0.14 86.34 -16.93 31.39c-9.26,17.27 -16.79,32.82 -16.64,34.68 0,1.71 2.46,12.27 5.21,23.26 2.89,11.13 5.06,20.41 4.77,20.55 -0.29,0.14 -4.92,2.71 -10.56,5.71 -5.5,3 -14.04,7.7 -18.81,10.42 -11,6.28 -15.34,8.7 -26.05,14.55 -4.78,2.57 -18.38,10.13 -30.39,16.84 -11.87,6.71 -34.01,18.98 -49.2,27.4 -15.05,8.28 -29.81,16.55 -32.56,18.12 -2.75,1.57 -8.98,5 -13.75,7.57 -4.78,2.57 -14.04,7.85 -20.7,11.56 -6.51,3.85 -12.15,6.99 -12.3,6.99 -0.29,0 -7.81,4.14 -16.93,9.27 -9.12,5.14 -17.07,9.28 -17.65,9.28 -0.58,0 -1.16,-68.07 -1.16,-151.27l0 -151.26 105.64 0 105.64 0 0 -59.66 0 -59.79 141.1 -281.56c77.56,-154.83 141.09,-281.7 141.09,-281.98 0,-0.29 -146.59,-0.57 -325.75,-0.57 -260.05,0 -325.46,0.42 -324.59,1.71l0 0zm605.48 441.96c3.91,7.13 7.24,13.41 7.24,13.84 0,0.28 -6.81,0.57 -15.2,0.57l-15.34 0 7.67 -14.13c4.2,-7.85 7.82,-13.98 7.96,-13.84 0.29,0.14 3.62,6.28 7.67,13.56zm-1008.36 20.69c17.65,3.42 17.94,3.57 34.29,14.27 16.36,10.56 16.65,10.84 27.79,27.26 11.29,16.55 11.29,16.69 15.05,34.67 3.47,17.56 3.62,19.13 3.62,79.78l0 61.79 -226.77 0.28 -226.91 0.43 -0.44 64.5 -0.28 64.65 174.81 0 174.96 0 21.13 4.28c17.94,3.57 22.28,5 29.08,9.42 4.34,2.85 8.54,4.71 9.26,4.28 0.73,-0.43 1.31,0.29 1.16,1.57 0,1.43 0.58,2.57 1.3,2.57 5.07,0.28 13.46,8.56 23.01,22.83 5.79,8.56 11,16.41 11.58,17.41 0.44,0.86 2.46,9.42 4.49,19.12l3.61 17.41 0 185.81 0 185.8 -3.61 17.27c-3.48,17.12 -3.76,17.69 -14.76,34.25 -11.29,16.84 -11.29,16.84 -28.08,27.68 -16.35,10.7 -16.93,10.99 -34.87,14.56l-18.09 3.71 -231.54 0 -231.54 0 -18.38 -3.71 -18.53 -3.71 -16.78 -11.13c-16.5,-10.99 -16.79,-11.28 -27.93,-27.83 -9.99,-14.84 -11.44,-17.98 -13.03,-26.97 -0.87,-5.57 -2.6,-14.13 -3.61,-19.13 -1.6,-6.85 -2.03,-22.83 -2.03,-66.07l0 -56.94 227.92 0 227.93 0 -0.29 -64.5 -0.44 -64.65 -180.89 -0.71c-178.86,-0.71 -181.04,-0.71 -195.65,-3.85 -12.88,-2.71 -16.21,-4.14 -26.34,-10.85 -6.51,-4.14 -11.29,-8.13 -10.56,-8.85 0.57,-0.57 0.29,-0.71 -0.58,-0.28 -3.33,1.85 -11.15,-6 -22.14,-22.12l-11.29 -16.7 -3.91 -19.69 -3.76 -19.69 0 -185.52 0.14 -185.52 4.05 -19.69 4.06 -19.55 10.71 -15.84c10.56,-15.7 11,-16.13 27.93,-27.26 16.93,-11.27 17.22,-11.42 34,-14.7l16.79 -3.28 233.28 -0.14 233.13 -0.15 17.95 3.43 0 0zm768.13 107.17l0 110.6 -105.64 0 -105.64 0 0 348.91 0 348.92 -96.23 0 -96.24 0 0 -348.92 0 -348.91 -107.81 0 -107.81 0 0 -110.6 0 -110.6 309.69 0 309.68 0 0 110.6zm652.95 -106.74c12.88,2.57 15.2,3.71 31.26,14.12l17.37 11.28 10.85 16.41c10.71,16.27 10.85,16.55 14.62,34.82 3.76,18.12 3.76,19.41 3.76,79.63l0 61.08 -177.57 0c-97.82,0 -199.99,0 -227.2,0l-49.63 0 0 64.93 0 64.93 174.81 0 174.67 0 20.26 3.85 20.26 3.71 17.22 11.13c17.37,11.28 17.37,11.28 28.51,27.69l11 16.55 3.91 19.12 3.76 19.13 0 183.52 0 183.66 -3.76 18.69c-2.75,13.7 -4.64,20.12 -7.24,23.41 -1.88,2.42 -3.47,4.99 -3.47,5.71 0,0.57 -1.45,2.85 -3.33,4.85 -1.74,2.14 -5.07,7.13 -7.53,11.13 -2.31,3.99 -5.06,7.28 -6.08,7.28 -0.86,0 -1.88,0.42 -2.17,1.14 -0.57,1.42 -16.78,12.27 -25.18,16.84 -3.61,1.99 -13.74,4.99 -23.87,6.99l-17.66 3.57 -231.11 0 -230.96 0 -18.52 -3.57c-18.24,-3.71 -18.53,-3.71 -34.3,-14.13 -15.92,-10.56 -27.2,-21.83 -25.03,-25.26 0.57,-1 0.43,-1.28 -0.44,-0.85 -0.87,0.57 -4.48,-3.43 -7.96,-8.71 -5.79,-8.56 -6.94,-11.7 -10.42,-28.11 -3.76,-18.27 -3.76,-19.41 -3.76,-76.78l0 -58.08 227.2 0 227.2 0 0 -64.93 0 -64.93 -177.42 0 -177.56 0 -18.23 -3.71c-17.95,-3.71 -18.38,-3.85 -34.74,-14.7 -16.2,-10.7 -16.64,-11.13 -27.64,-27.26 -11,-16.26 -11,-16.55 -14.9,-34.96l-3.91 -18.55 0 -187.37 0 -187.52 3.91 -18.69 3.76 -18.84 11.29 -16.55c11,-16.27 11.43,-16.7 27.64,-27.4 16.06,-10.71 17.07,-11.13 33.14,-14.42l16.5 -3.42 237.33 0.28c232.98,0.29 237.61,0.29 251.36,3.29l0 0zm-262.07 252.58c39.36,71.93 50.5,92.34 50.5,92.76 0,0.15 -36.47,0.43 -81.04,0.43l-81.04 0 0 -62.79 0 -62.79 46.89 0 46.88 0 17.81 32.4 0 -0.01zm-1288.1 382.17l0 62.08 -72.79 0 -72.79 0 -9.26 -18.7c-5.21,-10.27 -9.26,-19.26 -8.97,-19.98 0.14,-0.71 -0.29,-1.28 -1.02,-1.28 -0.58,0 -7.23,-11.7 -14.61,-26.11 -7.38,-14.28 -17.37,-33.26 -22,-42.1l-8.68 -15.99 105.06 0 105.06 0 0 62.08 0 0zm1418.19 0.71l0 62.8 -120.4 0 -120.54 0 6.51 -4c3.62,-2.28 10.13,-5.99 14.47,-8.42 4.34,-2.28 15.48,-8.42 24.6,-13.56 19.68,-10.99 24.46,-13.56 52.1,-28.97 11.57,-6.42 23.44,-12.98 26.48,-14.7 3.04,-1.71 10.42,-6.85 16.64,-11.41 6.08,-4.43 12.01,-8.85 13.17,-9.56 4.05,-2.86 12.73,-12.13 21.85,-23.26l9.41 -11.56 27.93 0 27.78 -0.15 0 62.79 0 0zm-1341.49 434.54l0 60.8 -12.59 -0.43 -12.74 -0.43 -0.43 -60.37 -0.29 -60.22 13.03 0 13.02 0 0 60.65 0 0zm151.95 -46.38l0 14.27 -15.92 0 -15.92 0 0 46.38 0 46.38 -14.47 0 -14.62 0 0.44 -46.38 0.43 -46.38 -5.06 -0.14c-2.75,0 -9.55,-0.14 -15.2,-0.28l-10.13 -0.29 -0.43 -13.98 -0.44 -13.85 45.73 0 45.59 0 0 14.27 0 0zm224.31 7.85c0,12.13 0.57,22.12 1.15,22.12 0.73,0 2.75,-1.71 4.49,-3.71 8.1,-9.13 23.88,-11.27 32.27,-4.14 9.12,7.71 10.71,17.13 10.13,58.08l-0.29 26.83 -12.16 0 -12.3 0 -0.43 -29.11c-0.43,-26.26 -0.72,-29.4 -3.18,-32.11 -3.33,-3.71 -11.29,-3.99 -14.62,-0.57 -4.34,4.28 -5.07,8.99 -5.07,35.54l0 26.4 -13.02 -0.29 -13.02 -0.14 0 -60.51 0 -60.51 13.02 0 13.02 0 0 22.12 0.01 0zm184.94 -11.84l-0.44 10.42 -12.3 0 -12.3 0 -0.43 -10.42 -0.43 -10.28 13.16 0 13.17 0 -0.43 10.28 0 0zm-341.38 24.26c7.09,2.14 15.19,10.13 18.81,18.26 2.9,6.57 6.22,29.12 4.63,30.69 -0.29,0.42 -13.02,0.71 -28.07,0.71l-27.5 0 0.87 5.14c1.16,6.7 4.34,11.41 9.84,14.27 5.5,2.71 10.42,1.71 15.34,-3.14 3.48,-3.43 3.76,-3.43 15.34,-2 6.51,0.71 11.87,1.43 12.01,1.43 0.29,0 -0.58,1.85 -1.73,4.14 -3.77,7.42 -13.9,15.27 -22.14,17.26 -9.7,2.29 -26.78,1.29 -33.14,-1.99 -15.63,-8 -24.17,-29.12 -20.7,-50.81 1.59,-9.7 8.83,-25.26 11.58,-24.69 0.87,0.29 1.45,-0.28 1.3,-1.28 -0.58,-2.28 11.43,-8.71 18.38,-9.85 6.8,-1.14 18.23,-0.28 25.18,1.86zm286.39 1.57c2.46,1.71 4.34,3.99 3.91,4.99 -0.44,1 -0.15,1.43 0.72,1 0.72,-0.43 2.31,2.57 3.62,6.71 1.73,5.71 2.17,14.7 2.17,39.96l0 32.68 -12.59 -0.43 -12.74 -0.43 -0.72 -29.4c-0.87,-32.39 -1.3,-34.1 -9.41,-34.1 -11.43,0 -13.46,6.42 -13.6,42.38l-0.15 21.83 -12.3 0 -12.3 0 0 -43.52 0 -43.53 11.58 0 11.58 0 0 6.43c0,3.56 0.43,6.42 0.86,6.42 0.58,0 3.91,-2.86 7.53,-6.42 3.47,-3.57 8.54,-7 11,-7.85 6.22,-1.86 15.19,-0.43 20.84,3.28l0 0zm-194.64 -1.72c7.52,2 15.34,9.14 19.24,17.56 1.89,3.85 3.04,7.56 2.75,7.99 -0.43,0.57 -4.05,1.43 -8.1,2 -4.2,0.57 -9.26,1.28 -11.43,1.71 -3.33,0.71 -4.2,0.14 -5.65,-3.43 -4.05,-9.41 -18.09,-9.7 -24.31,-0.42 -3.47,5.28 -4.34,24.83 -1.45,31.82 2.76,6.42 7.96,9.99 15.05,9.99 5.36,0 7.82,-1.71 13.46,-9.99 2.03,-3 2.61,-3 13.03,-1.57 5.93,0.86 11,1.71 11.29,2 1.01,1 -7.1,16.12 -10.86,20.12 -8.54,8.99 -22.86,12.42 -38.78,9.13 -16.64,-3.28 -26.34,-14.13 -29.67,-33.25 -4.19,-23.26 5.94,-46.95 22.43,-52.94 6.81,-2.43 25.18,-2.86 33,-0.72l0 0zm81.91 27.83c4.63,5.85 4.05,13.56 -1.31,17.41 -2.31,1.71 -4.63,3.14 -5.21,3.14 -0.43,0 -2.6,1.29 -4.92,2.86l-3.9 2.71 0.14 -6c0.72,-15.69 0.87,-16.84 4.49,-20.26 4.48,-4.57 6.94,-4.42 10.71,0.14l0 0z"/>
   <path class="fil0" d="M906.55 2189.46c-3.47,2.43 -5.93,7.14 -7.09,13.7l-0.58 4 15.2 0 15.34 0 -1.02 -4.71c-1.15,-6.42 -4.34,-12.13 -7.52,-13.84 -4.2,-2.14 -10.57,-1.72 -14.33,0.85l0 0zm15.63 3.71c1.59,1.72 2.9,3.86 2.9,4.57 0,0.86 0.43,3 0.86,4.71 0.87,3.28 0.73,3.28 -11.57,3.28 -13.75,0 -14.47,-0.57 -10.28,-8.56 4.06,-7.56 12.74,-9.56 18.09,-4l0 0z"/>
   <path class="fil0" d="M194.27 2134.95c-19.68,5.28 -30.82,23.97 -26.05,43.52 3.62,14.85 12.74,22.55 35.75,30.26 15.48,5.28 19.25,8.28 19.25,15.84 0,7.56 -3.91,11.13 -12.16,11.13 -8.54,0 -13.17,-3.71 -15.48,-12.99l-1.89 -7.28 -9.55 0.86c-5.21,0.43 -11.86,0.86 -14.76,0.86 -5.21,0 -5.5,0.28 -5.5,4.71 0,5.56 3.62,16.84 7.53,23.4 6.94,11.42 20.84,16.7 41.39,15.84 15.34,-0.71 21.7,-3 30.1,-10.99 8.24,-7.7 11.43,-16.27 11.43,-30.82 0,-10.42 -0.58,-13.99 -3.19,-18.7 -5.93,-10.98 -16.06,-17.41 -37.19,-23.68 -5.64,-1.57 -11.72,-3.86 -13.45,-4.86 -4.2,-2.56 -4.35,-8.13 -0.15,-11.98 6.37,-5.85 16.79,-1.86 19.97,7.85 1.88,5.56 1.88,5.7 20.84,3.99l11.14 -0.86 -0.87 -4.42c-3.9,-19.12 -10.85,-27.4 -27.06,-31.68 -9.26,-2.43 -21.27,-2.43 -30.1,0l0 0zm24.46 1c11,1.71 17.36,4.71 22.14,10.56 4.2,5.14 8.39,15.13 8.39,19.98 0,3.42 -0.43,3.57 -8.53,3.57 -4.64,0 -10.42,0.42 -12.59,0.85 -3.77,0.71 -4.49,0.29 -6.08,-4.14 -2.61,-7.13 -6.66,-9.99 -15.49,-10.99 -4.19,-0.42 -7.38,-0.28 -6.94,0.43 0.43,0.57 -0.29,2 -1.74,2.86 -2.75,2.14 -3.33,9.99 -0.87,12.84 0.87,1.14 8.25,4.28 16.5,6.85 22,6.99 30.25,12.42 36.18,23.4 4.34,8.28 4.34,25.98 -0.15,35.4 -9.11,18.98 -30.39,26.82 -55.86,20.26 -14.76,-3.85 -22.14,-11.56 -26.33,-28.11 -2.75,-10.14 -2.03,-11.14 8.1,-11.14 3.62,0 8.83,-0.42 11.72,-0.85 5.07,-0.86 5.21,-0.71 6.08,4.14 1.59,10.27 10.27,17.26 20.4,16.41 5.21,-0.43 12.45,-8.42 12.45,-13.7 0,-7.99 -6.08,-12.7 -24.75,-18.7 -19.39,-6.28 -29.23,-15.69 -31.54,-29.96 -2.03,-13.13 3.18,-27.69 12.01,-33.4 2.02,-1.42 3.76,-2.14 3.76,-1.71 0,0.57 1.01,0 2.17,-1.28 1.16,-1.14 5.36,-2.57 9.12,-3 3.76,-0.57 7.52,-1.14 8.25,-1.43 2.46,-0.85 4.05,-0.71 13.6,0.86z"/>
   <path class="fil0" d="M1595.82 2134.24c-12.59,2.99 -23.3,12.27 -26.48,22.83 -2.6,8.28 -2.03,21.41 1.01,28.11 4.92,10.85 13.9,16.84 36.76,24.98 10.42,3.71 13.02,5.13 14.91,8.7 4.48,8.56 -0.58,16.84 -10.42,16.84 -8.25,0 -14.19,-4.85 -16.36,-13.7l-1.73 -6.57 -14.04 1c-7.67,0.57 -14.62,1.43 -15.19,2.14 -1.89,1.72 1.59,16.13 5.5,23.55 3.61,6.57 11.72,14.84 14.61,14.99 1.01,0 3.62,0.99 5.79,2.14 5.64,2.85 28.07,2.85 38.06,-0.15 11,-3.14 20.84,-13.13 24.17,-24.26 5.06,-16.98 2.02,-33.1 -7.96,-42.95 -5.36,-5.28 -19.25,-12.13 -29.81,-14.56 -15.34,-3.71 -19.83,-7.7 -16.5,-14.98 2.02,-4.28 8.68,-6.14 14.61,-3.85 3.91,1.42 8.4,7.99 8.4,12.27 0,2.42 2.6,2.57 19.53,1.14l11.15 -0.86 -0.87 -6.28c-1.16,-8.7 -6.51,-18.69 -12.45,-23.4 -8.68,-6.85 -29.37,-10.27 -42.69,-7.13l0 0zm31.12 3.14c10.7,2.56 18.95,12.7 21.7,25.97 1.31,6.42 1.74,6.14 -13.89,7.28l-11.72 0.85 -1.16 -4.56c-0.72,-2.57 -1.16,-5.43 -1.16,-6.28 0,-0.86 -0.72,-1.57 -1.59,-1.57 -0.87,-0.14 -3.62,-1 -6.08,-2 -6.36,-2.43 -14.18,-0.71 -16.2,3.85 -1.02,2 -1.74,4.85 -1.74,6.28 0,3.57 4.92,7.99 9.84,8.99 2.17,0.43 5.93,1.57 8.25,2.57 2.46,1 4.77,1.71 5.35,1.57 2.03,-0.43 17.66,6.85 22.43,10.56 15.05,11.42 16.07,40.81 1.74,56.8 -6.22,6.85 -13.17,10.27 -24.31,11.7 -7.82,1 -26.63,-0.43 -25.62,-2 0.29,-0.57 -1.3,-1 -3.47,-1.14 -8.97,-0.28 -20.26,-14.84 -23.01,-29.54 -1.45,-7.85 -2.03,-7.42 15.34,-8.7l10.42 -0.72 1.01 5.14c2.17,11.7 15.2,19.12 25.04,14.13 5.35,-2.71 7.38,-6.28 7.38,-12.42 0,-3.57 -1.45,-5.85 -5.94,-10.13 -3.32,-3.14 -6.22,-5.28 -6.65,-4.85 -1.31,1.28 -27.93,-8.57 -27.93,-10.42 0,-0.57 -2.03,-2.14 -4.49,-3.57 -6.08,-3.56 -11.43,-15.55 -11.43,-25.54 0,-12.84 8.68,-26.69 19.54,-31.11 9.55,-3.85 25.76,-4.43 38.35,-1.14l0 0z"/>
   <path class="fil0" d="M546.94 2135.38c-2.32,0.57 -2.46,2.14 -2.17,12.27l0.43 11.7 13.61 0.43c8.97,0.29 14.03,-0.14 14.61,-1.14 1.74,-2.86 1.59,-20.12 -0.14,-22.26 -1.6,-2 -19.97,-2.71 -26.34,-1l0 0zm25.04 12.56l0 10.7 -12.31 0 -12.3 0 0 -10.7 0 -10.71 12.3 0 12.31 0 0 10.71z"/>
   <path class="fil0" d="M1476.87 2135.38c-1.45,0.57 -1.88,14.27 -1.88,62.65l0 61.93 14.32 0c13.61,0 14.33,-0.14 15.2,-3.28 0.43,-1.72 0.87,-29.26 0.87,-61.22 0,-44.96 -0.44,-58.37 -1.74,-59.23 -2.03,-1.14 -23.73,-1.85 -26.77,-0.85l0 0zm25.61 62.5l0 60.65 -12.3 0 -12.3 0 0 -60.65 0 -60.65 12.3 0 12.3 0 0 60.65z"/>
   <path class="fil0" d="M1762.68 2135.38c-2.46,0.57 -2.61,4.85 -2.61,62.65l0 61.93 14.47 0 14.47 0 -0.29 -62.51 -0.43 -62.36 -11.58 -0.28c-6.36,0 -12.73,0.14 -14.03,0.57l0 0zm24.89 62.5l0 60.8 -12.59 -0.43 -12.74 -0.43 -0.43 -60.37 -0.29 -60.22 13.02 0 13.03 0 0 60.65 0 0z"/>
   <path class="fil0" d="M1960.21 2135.38c-1.3,0.43 -1.88,4.42 -1.88,12.7l0 11.99 14.47 0 14.47 0 0 -11.99c0,-9.56 -0.43,-12.13 -2.31,-12.84 -2.75,-1 -22.14,-1 -24.75,0.14l0 0zm25.33 12.13l-0.44 10.42 -12.3 0 -12.15 0 -0.58 -10.42 -0.58 -10.28 13.31 0 13.17 0 -0.43 10.28 0 0z"/>
   <path class="fil0" d="M1923.89 2140.09c-3.33,2.42 -6.51,4.28 -6.95,4.28 -0.43,0 -3.76,2 -7.23,4.56 -6.08,4.29 -6.37,4.71 -6.37,11.99 0,7.42 0,7.56 -4.63,7.99l-4.78 0.43 -0.43 13.13 -0.44 13.27 5.07 0 4.92 0 0.58 24.55c0.58,28.4 2.17,34.1 11.29,38.53 5.2,2.57 17.51,3.28 27.92,1.71l5.36 -1 0 -7.28c0,-3.99 -0.43,-9.56 -0.87,-12.41 -0.87,-5.14 -0.87,-5.14 -7.09,-4.57 -7.67,0.86 -7.96,0.14 -7.96,-22.83l0 -16.7 7.96 0 8.1 0 -0.43 -13.27 -0.43 -13.13 -7.53 -0.43 -7.67 -0.42 0 -16.42c0,-8.84 -0.43,-16.26 -1.01,-16.26 -0.72,0 -3.91,1.99 -7.38,4.28l0 0zm15.05 31.39l7.81 0 -0.14 10.71c-0.29,11.7 -1.16,12.84 -10.42,11.84l-4.63 -0.43 -0.44 19.84c-0.29,17.27 0,20.12 2.17,22.55 1.89,2.14 3.62,2.56 7.1,1.99l4.48 -0.85 1.01 9.42c0.58,5.85 0.44,10.13 -0.43,10.98 -0.87,0.86 -6.51,1.72 -12.73,2 -14.04,0.72 -20.12,-1.85 -24.17,-10.27 -2.17,-4.71 -2.75,-10.28 -3.48,-30.4 -0.57,-22.26 -1.01,-24.54 -3.32,-24.54 -6.37,0 -7.09,-1.29 -7.09,-12.28l0 -10.56 5.06 0 5.07 0 0 -8.56 0 -8.42 9.84 -6.28c17.22,-10.99 15.48,-11.7 15.91,6.99l0.44 16.27 7.96 0 0 0z"/>
   <path class="fil0" d="M307.29 2169.34c-2.75,1.14 -6.36,3.71 -7.96,5.71 -4.19,4.85 -5.2,4.57 -5.2,-1.43l0 -5.13 -13.32 0.42 -13.46 0.43 0 62.08 0 62.07 14.91 0.43 14.76 0.43 0 -20.12c0,-10.99 0.43,-19.98 1.01,-19.98 0.58,0 2.46,1.43 4.2,3 3.76,3.42 13.46,4.99 21.56,3.57 7.09,-1.29 15.49,-9.28 19.68,-18.41 3.04,-6.57 3.48,-9.57 3.48,-25.98 0,-10.7 -0.73,-20.97 -1.74,-24.4 -2.61,-8.13 -10.13,-18.84 -15.2,-21.41 -6.36,-3.28 -16.93,-3.85 -22.72,-1.28l0 0zm22.29 3.43c5.79,3.28 12.88,15.27 15.2,25.68 2.6,12.56 1.3,33.25 -2.75,42.53 -3.77,8.42 -12.6,16.84 -19.11,18.27 -7.52,1.71 -16.2,-0.43 -21.41,-5 -5.79,-5.28 -7.38,-5.42 -7.24,-0.43 0.14,2.29 0.14,11.85 0,21.55l-0.14 17.56 -11.87 -0.43 -12.01 -0.43 -0.44 -60.37 -0.29 -60.22 11.58 0 11.58 0 0 6.71 0.14 6.85 5.36 -5.99c9.4,-10.42 20.26,-12.56 31.4,-6.28l0 0z"/>
   <path class="fil0" d="M300.64 2195.17c-6.95,7.42 -7.96,26.55 -1.74,35.82 5.5,8.13 16.35,6.99 20.12,-2.14 2.46,-6.28 2.02,-24.55 -0.87,-29.97 -4.05,-7.85 -12.01,-9.56 -17.51,-3.71zm15.63 4.85c2.02,3.86 2.46,7.57 2.17,16.56 -0.44,12.98 -3.04,17.69 -9.41,17.69 -8.39,0 -12.01,-5.99 -12.01,-20.12 0,-13.98 4.05,-20.41 12.3,-19.55 3.33,0.29 4.92,1.57 6.95,5.42l0 0z"/>
   <path class="fil0" d="M388.91 2168.06c-21.13,5.28 -32.56,21.69 -32.56,46.95 0,22.4 9.84,39.24 25.91,44.66 7.09,2.43 26.33,2.15 34.44,-0.57 8.1,-2.56 15.34,-8.99 19.53,-16.69 3.91,-7.57 4.2,-7.28 -14.32,-8.99 -10.13,-0.86 -10.71,-0.86 -14.33,2.85 -5.5,5.28 -12.16,5.14 -17.08,-0.71 -2.02,-2.43 -3.76,-4.85 -3.76,-5.57 0,-0.71 -0.43,-2.14 -0.87,-3.42 -0.72,-2 2.46,-2.29 27.21,-2.57l27.93 -0.43 -0.43 -10.7c-1.02,-20.7 -8.54,-35.25 -21.28,-41.39 -6.36,-2.99 -23.88,-4.99 -30.39,-3.42zm29.09 5.42c12.59,5.71 20.84,21.69 20.84,40.39l0 7.56 -27.5 0c-26.62,0 -27.49,0.14 -27.49,2.85 0,4.28 3.47,11.71 6.65,14.42 5.94,4.99 13.75,4.28 20.26,-1.72 2.9,-2.71 4.06,-2.85 13.61,-1.42 5.79,0.71 10.71,1.71 11.14,2 1.16,1.28 -3.62,8.7 -8.54,13.41 -8.68,8.13 -24.74,10.99 -41.39,7.42 -9.84,-2 -17.51,-8.85 -22.86,-20.12 -3.76,-7.99 -4.2,-10.56 -4.2,-22.55 0.15,-7.42 1.02,-15.98 2.03,-19.12 2.6,-7.28 10.13,-18.27 11.87,-17.13 0.72,0.43 1.15,0 1.01,-0.85 -0.58,-2.29 9.55,-7.42 16.93,-8.71 8.54,-1.57 19.25,-0.14 27.64,3.57z"/>
   <path class="fil0" d="M390.07 2190.46c-3.18,3.28 -7.96,14.56 -6.51,15.99 0.43,0.42 7.23,0.71 15.05,0.71 13.89,0 14.18,0 14.18,-3.43 0,-5.56 -2.89,-11.98 -6.51,-14.27 -4.92,-3.28 -12.45,-2.71 -16.21,1l0 0zm14.76 0.43c3.18,2 6.51,8.56 6.51,12.84 0,1.57 -3.04,2 -13.02,2 -7.09,0 -13.03,-0.28 -13.03,-0.57 0,-3.14 4.06,-10.84 7.1,-13.27 4.48,-3.85 7.66,-4.14 12.44,-1l0 0z"/>
   <path class="fil0" d="M474.87 2169.77c-8.1,3 -11.14,5.14 -16.78,12.42 -7.24,9.27 -9.55,18.55 -8.83,36.1 0.43,12.42 1.16,16.55 3.91,21.69 7.66,14.84 16.78,20.26 35.31,21.12 21.85,1.14 32.56,-4.28 40.23,-20.26 4.63,-9.71 5.21,-13.7 2.02,-13.7 -1.16,0 -2.31,0 -2.46,-0.14 -0.29,-0.15 -5.21,-1 -11,-2l-10.56 -1.72 -2.89 5.43c-3.04,6.13 -6.52,8.42 -12.16,8.42 -9.41,0 -13.75,-7.14 -13.75,-22.41 0,-11.7 3.19,-18.83 9.41,-21.26 6.51,-2.43 13.6,0 15.63,5.28 1.88,4.71 2.02,4.71 17.36,2.43 12.59,-1.86 12.88,-2.29 8.11,-12.56 -4.05,-8.99 -10.71,-15.27 -19.68,-18.55 -9.7,-3.57 -24.61,-3.71 -33.87,-0.29l0 0zm34.88 2.71c2.75,1.14 6.94,3.71 9.26,5.85 4.63,4.28 11.58,17.56 9.84,18.98 -0.58,0.43 -5.93,1.71 -11.87,2.57 -8.68,1.43 -10.99,1.29 -11.43,-0.14 -0.29,-1 -2.46,-3.71 -4.77,-6 -3.62,-3.42 -5.07,-3.99 -9.85,-3.28 -6.07,0.72 -7.95,2.14 -12.29,8.71 -4.2,6.28 -3.91,25.54 0.57,32.68 4.2,6.7 12.3,9.41 18.53,6.13 3.76,-2 10.13,-8.27 9.26,-9.13 -0.15,-0.14 -0.15,-1 0.14,-1.86 0.29,-1 4.2,-1 12.45,0.29 12.88,2 12.44,1.43 8.97,10.56 -2.46,6.14 -10.42,15.13 -16.21,18.12 -5.35,2.86 -8.39,3.29 -20.69,3.29 -12.01,-0.15 -15.48,-0.57 -20.26,-3.14 -13.6,-7.14 -19.39,-17.56 -20.55,-36.68 -1.16,-18.41 2.89,-31.11 13.31,-41.67 2.61,-2.71 11.29,-6.71 16.65,-7.85 6.8,-1.43 22.72,0 28.94,2.57l0 0z"/>
   <path class="fil0" d="M609.31 2169.34c-8.68,2.86 -16.21,10.28 -18.52,18.7 -1.02,3.42 -1.45,6.85 -0.87,7.27 1.01,1.15 13.89,3 21.13,3.14 4.19,0.15 5.64,-0.57 7.67,-4.13 4.77,-7.85 19.82,-7.14 19.82,1.14 0,4.99 -1.59,5.85 -21.7,11.13 -17.66,4.71 -22.87,7.7 -27.07,16.27 -5.49,10.56 -3.76,22.97 4.49,31.53 5.5,5.71 9.26,7 20.12,7 8.82,0 16.35,-2.57 23.58,-7.85 3.04,-2.14 3.19,-2 4.64,2.14l1.59 4.28 13.31 0 13.17 0 -1.01 -4c-0.58,-2.14 -1.45,-18.26 -1.88,-35.96 -1.16,-36.53 -2.18,-40.1 -13.03,-47.66 -5.64,-4 -6.94,-4.28 -22.28,-4.71 -11.73,-0.29 -18.38,0.28 -23.16,1.71l0 0zm41.39 2.71c5.35,2.29 10.13,7.14 12.59,12.99 1.16,2.71 2.17,15.7 2.75,36.39 0.43,17.69 1.45,33.25 2.02,34.68 1.16,2.28 0.29,2.57 -10.85,2.14l-12.15 -0.43 -1.31 -5.42c-0.72,-2.86 -1.73,-5.28 -2.17,-5.28 -0.43,0 -3.33,2.28 -6.22,5.13 -4.2,3.86 -7.52,5.43 -13.89,6.57 -20.41,3.71 -32.27,-5.14 -32.27,-24.12 0,-14.41 6.51,-20.69 27.06,-25.97 7.09,-1.86 15.77,-4.57 19.24,-6 5.94,-2.56 6.23,-2.99 5.36,-7.27 -1.3,-6.57 -4.63,-8.57 -12.74,-7.85 -6.36,0.57 -11.28,3.42 -11.28,6.56 0,0.72 -0.58,1.86 -1.45,2.29 -1.3,0.85 -23.01,-1.57 -24.17,-2.72 -0.29,-0.14 0.29,-2.56 1.16,-5.28 5.35,-15.27 16.35,-20.4 40.95,-18.98 7.09,0.43 14.91,1.57 17.37,2.57l0 0z"/>
   <path class="fil0" d="M634.2 2217.58c-2.02,0.99 -6.8,2.99 -10.56,4.42 -9.7,3.57 -12.88,11.99 -6.8,17.98 4.63,4.57 12.01,3.71 18.23,-1.85 4.78,-4.29 5.35,-5.43 5.5,-13.13 0.14,-8.99 -0.87,-10.28 -6.37,-7.42zm4.92 5.56c-1.59,13.27 -4.2,16.56 -13.31,17.84 -5.07,0.71 -6.08,0.29 -8.25,-3 -3.47,-5.28 -0.87,-11.13 6.22,-14.13 2.9,-1.14 6.95,-2.71 8.97,-3.56 6.08,-2.57 7.09,-2.14 6.37,2.85l0 0z"/>
   <path class="fil0" d="M1315.95 2168.63c-12.3,2.85 -24.75,16.7 -27.79,31.11 -2.6,12.84 -1.01,31.11 3.62,40.38 7.96,15.42 15.48,20.13 34.87,20.98 16.07,0.72 23.74,-1.14 31.12,-7.7 8.97,-8 16.64,-26.12 11.29,-26.4 -1.02,0 -6.95,-0.86 -13.03,-1.86l-11.29 -1.71 -3.04 5.99c-2.46,5.14 -3.9,6.42 -8.24,7.14 -10.28,1.85 -17.66,-6.57 -17.66,-20.12 0,-15.56 5.65,-24.12 15.49,-23.84 5.35,0.15 7.52,1.72 11.28,8.14 1.45,2.42 2.46,2.42 13.75,0.71 6.8,-1 12.74,-2 13.32,-2.43 2.02,-1.14 -3.62,-13.41 -9.12,-19.55 -9.41,-10.56 -27.21,-14.84 -44.57,-10.84zm30.39 2.99c2.89,0.72 7.52,3.43 10.27,6 5.36,4.85 12.01,17.12 10.71,19.41 -0.43,0.71 -4.63,1.71 -9.12,2.14 -4.63,0.57 -9.55,1.28 -10.85,1.71 -1.74,0.57 -3.18,-0.43 -4.2,-2.71 -0.87,-2 -3.76,-4.71 -6.36,-6.14 -4.2,-2.14 -5.65,-2.28 -10.86,-0.71 -4.92,1.43 -6.51,2.85 -8.83,7.7 -3.32,7.28 -3.61,23.12 -0.72,30.26 2.75,6.42 10.28,11.13 16.06,9.99 4.64,-0.72 12.3,-7.99 12.3,-11.42 0,-2.57 -0.14,-2.57 13.75,-0.57 11,1.71 11,1.71 10.13,5.42 -0.43,2 -2.46,6.28 -4.34,9.42 -8.1,13.7 -18.81,18.7 -37.62,17.55 -14.48,-0.99 -22.87,-4.99 -29.67,-14.27 -7.52,-10.13 -10.42,-27.4 -7.24,-42.81 4.64,-23.4 19.97,-35.1 43.42,-33.1 4.34,0.42 10.27,1.42 13.17,2.14l0 -0.01z"/>
   <path class="fil0" d="M1406.25 2168.2c-11.87,2.57 -19.83,9.28 -23.3,19.27 -1.3,3.85 -2.03,7.42 -1.59,7.7 0.43,0.43 5.21,1.29 10.56,2.14 5.5,0.72 11.43,1.57 13.32,2 2.46,0.57 3.47,0 4.48,-2.57 1.74,-4.57 4.78,-6.71 10.71,-7.7 3.91,-0.58 5.64,-0.15 8.1,2.28 1.6,1.57 3.04,4.28 3.04,5.71 0,2.85 -6.51,5.56 -27.49,10.98 -17.37,4.57 -24.6,12.56 -24.6,27.69 0,16.84 9.55,25.69 27.49,25.69 8.97,0 17.66,-2.86 22.72,-7.57l3.33 -2.85 1.59 4.42 1.59 4.57 13.75 0c13.61,0 13.75,0 12.74,-3.28 -0.73,-1.72 -1.6,-17.27 -2.17,-34.54 -0.73,-19.69 -1.74,-33.39 -3.04,-36.81 -2.61,-7.57 -9.27,-13.56 -17.8,-15.99 -6.66,-2 -26.63,-2.71 -33.43,-1.14l0 0zm36.03 3.28c2.17,0.72 3.47,2 3.04,2.86 -0.43,0.71 0,1 1.01,0.71 2.03,-0.71 6.66,4.42 9.12,9.99 0.72,1.57 1.74,17.27 2.32,34.96 0.57,17.7 1.44,33.54 2.02,35.25 1.01,3.28 0.87,3.28 -10.56,3.28l-11.73 0 -1.59 -5.71c-0.87,-3.13 -1.88,-5.7 -2.17,-5.7 -0.29,0 -2.46,1.99 -4.92,4.28 -7.81,7.85 -23.59,10.84 -33.86,6.56 -11.43,-4.56 -16.93,-19.98 -12.01,-32.96 3.18,-7.99 7.38,-10.99 21.13,-14.99 28.79,-8.27 28.94,-8.42 28.94,-13.27 0,-6.85 -1.88,-8.42 -9.99,-9.27 -7.09,-0.58 -7.67,-0.43 -12.3,4.56l-4.92 5.28 -10.42 -1.42c-5.64,-0.72 -10.71,-1.72 -11.28,-2.15 -0.44,-0.42 0,-3.42 1.01,-6.42 2.17,-7.42 11.29,-15.12 20.11,-17.12 7.96,-1.71 31.26,-1 37.05,1.28l0 0z"/>
   <path class="fil0" d="M1419.13 2220.57c-12.16,5.57 -14.91,9.99 -11.15,17.84 2.03,4 2.9,4.43 8.54,4.43 4.92,0 7.38,-0.86 11,-4.14 4.2,-3.57 4.63,-5 5.21,-13.56 0.72,-11.13 0.87,-11.13 -13.6,-4.57l0 0zm12.44 3c0,9.56 -7.38,17.84 -15.77,17.84 -6.66,0 -9.99,-10.13 -4.78,-14.56 2.17,-2 16.65,-7.99 19.54,-8.13 0.58,-0.15 1.01,2.14 1.01,4.85l0 0z"/>
   <path class="fil0" d="M1697.12 2168.06c-11.14,2.85 -19.25,8.42 -25.32,17.69 -5.5,8.57 -7.53,16.84 -7.53,30.11 0.15,15.13 4.34,25.55 14.04,34.82 8.68,8.42 14.9,10.71 28.65,10.71 7.82,0 11,-0.86 18.53,-4.71 10.13,-5.14 15.62,-11.56 19.68,-23.12 3.33,-9.71 3.33,-29.11 0,-38.82 -3.33,-9.42 -12.74,-19.98 -21.13,-23.54 -6.51,-2.72 -21.42,-4.43 -26.92,-3.14l0 0zm26.2 4.85c7.81,3.57 17.22,14.13 20.25,23.12 3.19,9.56 2.32,31.96 -1.73,40.67 -1.45,3.42 -3.19,6.14 -3.76,6.14 -0.73,0 -1.16,0.85 -1.16,1.85 0,1 -1.74,3.28 -3.76,5.14 -15.05,12.98 -40.38,13.27 -53.11,0.57 -16.5,-16.13 -18.82,-45.95 -5.21,-65.36 4.92,-6.99 7.67,-9.28 15.05,-12.42 10.27,-4.42 23.01,-4.28 33.43,0.29l0 0z"/>
   <path class="fil0" d="M1699 2193.32c-6.08,4.99 -7.52,9.27 -7.38,21.97 0,11.71 1.16,15.27 6.95,20.98 3.47,3.28 11.43,2.85 15.92,-1 4.77,-4.14 7.38,-15.84 5.93,-27.26 -1.01,-6.99 -2.03,-9.41 -5.93,-13.27 -5.65,-5.56 -10.13,-5.99 -15.49,-1.42zm14.76 3.14c6.66,6.99 6.52,30.25 -0.14,37.38 -5.79,5.86 -14.62,3.72 -18.09,-4.56 -2.46,-5.85 -2.75,-23.83 -0.43,-28.26 4.77,-8.99 12.59,-10.99 18.66,-4.56z"/>
   <path class="fil0" d="M2031.7 2168.77c-8.39,2 -13.17,4.85 -19.68,12.13 -20.84,23.41 -11.87,69.07 15.34,78.2 8.54,2.86 23.59,3 30.39,0.15 8.82,-3.71 16.93,-11.28 21.41,-20.13 5.36,-10.84 6.66,-29.54 3.04,-42.24 -6.65,-22.26 -26.91,-33.68 -50.5,-28.11l0 0zm28.65 4.14c14.91,6.56 23.88,25.26 21.85,45.66 -2.31,24.55 -14.47,38.39 -36.17,40.82 -17.23,2 -31.99,-6.85 -39.51,-23.41 -4.63,-10.27 -5.21,-28.39 -1.45,-39.67 4.49,-12.98 17.08,-24.4 29.23,-26.4 7.96,-1.28 19.11,0 26.05,3l0 0z"/>
   <path class="fil0" d="M2036.33 2192.17c-10.28,5.57 -11.72,34.54 -2.17,43.39 6.66,6.13 15.63,3.56 20.69,-6 2.75,-5.28 2.75,-23.4 -0.14,-29.97 -2.03,-4.85 -8.54,-9.7 -12.74,-9.56 -1.01,0.15 -3.61,1 -5.64,2.14zm12.73 2.86c5.79,3.99 8.25,22.55 4.2,33.25 -3.47,9.85 -13.75,11.42 -19.97,3 -3.62,-4.71 -4.92,-18.41 -2.75,-26.55 2.9,-10.56 11.14,-14.84 18.53,-9.7l-0.01 0z"/>
   <path class="fil0" d="M2139.8 2168.06c-3.76,0.85 -15.05,10.13 -15.05,12.41 0,0.86 2.17,-0.42 4.78,-2.99 14.61,-13.99 34.87,-9.71 40.23,8.42 1.3,4.28 1.88,16.84 1.88,39.1l0.14 32.82 -12.59 0.43 -12.59 0.43 -0.43 -29.26c-0.44,-26.26 -0.73,-29.4 -3.19,-32.11 -1.88,-2 -4.48,-2.99 -8.1,-2.99 -4.63,0 -5.64,0.71 -8.39,5.56 -2.9,5.14 -3.19,7.42 -3.19,32.11l0 26.69 -12.59 -0.43 -12.73 -0.43 -0.44 -43.24 -0.29 -43.1 12.3 0 12.3 0 0 6.42c0,3.57 0.58,6.43 1.31,6.43 1.15,0 0.72,-9.56 -0.73,-13.99 -0.43,-1.28 -3.76,-1.71 -13.17,-1.43l-12.73 0.43 -0.43 45.24 -0.29 45.38 14.47 0 14.47 0 0 -25.69c0,-20.26 0.43,-26.83 2.32,-31.39 2.46,-6 6.51,-8.14 12.01,-6.42 4.63,1.42 5.93,9.27 5.93,37.38l0 26.12 14.62 0 14.61 0 -0.58 -36.11c-0.43,-35.1 -0.58,-36.1 -4.05,-42.95 -4.77,-9.42 -9.55,-12.7 -19.1,-13.13 -4.2,-0.14 -9.12,0 -10.71,0.29z"/>
   <path class="fil0" d="M2207.67 2168.49c-13.31,3.28 -21.13,13.98 -20.84,28.25 0.15,16.13 9.55,23.98 34.15,28.97 4.78,1 9.84,2.71 11.29,4 5.65,4.85 1.3,11.7 -7.67,11.7 -5.79,0 -9.55,-2.43 -11.57,-7.71 -1.16,-2.99 -1.45,-3.14 -14.62,-1.57 -11.87,1.29 -13.6,1.86 -14.04,4.28 -0.72,4.85 5.79,15.42 12.3,19.84 5.21,3.57 7.67,4.14 18.96,4.85 16.5,0.86 24.46,-0.28 31.69,-4.85 8.69,-5.57 12.59,-12.13 13.17,-22.69 0.29,-5 -0.14,-11.13 -1.01,-13.84 -3.33,-9.99 -15.2,-17.13 -31.84,-19.27 -8.1,-1 -14.61,-3.99 -14.61,-6.71 0,-4.99 1.88,-6.56 7.38,-6.56 5.35,0 6.65,0.71 10.41,6.14 1.6,2.28 2.9,2.28 13.32,0.99 15.63,-2.14 15.48,-1.99 13.6,-6.7 -5.35,-14.27 -13.75,-19.41 -32.41,-19.84 -7.09,-0.28 -15.2,0.14 -17.66,0.71l0 0.01zm27.21 1.71c4.92,1 9.26,3.28 12.88,6.42 5.06,4.42 9.98,12.7 8.39,14.13 -0.29,0.28 -5.79,1 -12.3,1.57 -10.85,0.85 -11.72,0.71 -12.59,-2 -1.3,-3.71 -7.96,-6.42 -13.03,-5.14 -4.92,1.14 -8.24,6 -7.23,10.13 1.01,3.43 4.92,5 17.94,7.42 16.5,3 23.45,7 27.64,15.56 6.23,12.42 1.31,29.11 -10.71,36.53 -12.44,7.57 -38.92,6.71 -50.07,-1.57 -4.48,-3.42 -11.43,-15.41 -9.84,-16.98 0.87,-0.86 17.51,-3.42 22.43,-3.42 1.74,0 3.19,0.85 3.19,1.85 0,1.14 1.73,3.43 3.76,5.42 7.24,6.71 20.84,2.86 20.84,-5.99 0,-5.28 -3.62,-7.56 -18.09,-10.99 -14.76,-3.71 -18.09,-4.99 -22.29,-8.85 -11.72,-11.13 -8.82,-33.82 5.36,-41.24 7.67,-3.99 22.14,-5.28 33.72,-2.85l0 0z"/>
   <path class="fil0" d="M545.49 2169.63c-0.58,0.43 -1.01,20.98 -1.01,45.66l0 44.67 14.33 0c13.6,0 14.32,-0.14 15.19,-3.28 1.16,-4.14 1.16,-82.92 0,-85.77 -0.72,-1.85 -3.33,-2.28 -14.18,-2.28 -7.38,0 -13.89,0.43 -14.33,1l0 0zm26.49 45.38l0 43.52 -12.31 0 -12.3 0 0 -43.52 0 -43.53 12.3 0 12.31 0 0 43.53z"/>
   <path class="fil0" d="M1245.9 2169.63c-0.57,0.43 -1.01,20.98 -1.01,45.66l0 44.67 14.47 0 14.48 0 0 -45.67 0 -45.66 -13.46 0c-7.53,0 -14.04,0.43 -14.47,1l-0.01 0zm26.49 45.38l0 43.52 -13.03 0 -13.02 0 0 -43.52 0 -43.53 13.02 0 13.03 0 0 43.53z"/>
   <path class="fil0" d="M1805.51 2170.77c-0.58,1.14 -0.58,17.41 -0.43,35.96 0.58,32.82 0.72,34.25 4.19,41.1 4.93,9.7 11.15,13.56 21.57,13.56 8.97,0 15.92,-3.14 21.42,-9.71l3.32 -3.85 0 5.99 0 6.14 13.75 0 13.75 0 0 -45.67 0 -45.8 -14.04 0.42 -14.18 0.43 -0.72 27.83c-0.44,19.27 -1.31,28.83 -2.61,31.11 -3.47,6.14 -12.01,6.85 -14.9,1.43 -0.87,-1.57 -1.45,-13.56 -1.31,-29.54 0,-14.84 -0.29,-27.97 -0.86,-29.26 -1.31,-3.28 -27.79,-3.42 -28.95,-0.14l0 0zm27.21 29.11c0.43,28.11 0.43,28.54 4.05,32.25 2.9,3 4.49,3.57 7.96,3 2.31,-0.57 5.21,-1 6.22,-1.14 0.87,-0.15 1.45,-0.43 1.16,-0.72 -0.29,-0.42 0.29,-2.85 1.45,-5.42 1.44,-3.57 2.02,-11.7 2.02,-30.68l0 -25.69 13.03 0 13.02 0 0 43.53 0 43.52 -11.58 0 -11.57 0 0 -6.13c0,-3.43 -0.44,-6.71 -1.02,-7.14 -0.43,-0.57 -3.9,2.14 -7.66,5.99 -5.65,5.86 -7.96,7.28 -13.75,8 -13.17,1.99 -23.16,-4 -26.78,-16.13 -1.01,-2.85 -2.02,-20.26 -2.46,-38.53l-0.86 -33.11 13.17 0 13.16 0 0.44 28.4 0 0z"/>
   <path class="fil0" d="M1959.34 2169.63c-0.58,0.43 -1.01,20.98 -1.01,45.66l0 44.67 14.47 0 14.47 0 0 -45.67 0 -45.66 -13.46 0c-7.52,0 -14.03,0.43 -14.47,1l0 0zm26.48 45.38l0 43.67 -12.59 -0.43 -12.73 -0.43 -0.43 -43.24 -0.29 -43.1 13.02 0 13.02 0 0 43.53z"/>
   <path class="fil0" d="M1382.95 2299.92c-2.32,0.71 -5.93,2.99 -7.96,5.13l-3.47 3.72 0 61.36 0 61.36 4.77 4.14 4.63 4.14 57.89 0 57.88 0 4.63 -4.14 4.78 -4.14 0 -61.5 0 -61.51 -4.78 -4.57 -4.63 -4.71 -54.7 -0.28c-29.95,-0.14 -56.58,0.28 -59.04,1l0 0zm116.93 5.56l4.77 4.14 0 60.22 0 60.22 -4.77 4.14 -4.63 4.14 -56.44 0 -56.44 0 -4.63 -4.14 -4.78 -4.14 0 -60.22 0 -60.22 4.78 -4.14 4.63 -4.14 56.44 0 56.44 0 4.63 4.14z"/>
   <path class="fil0" d="M1587.14 2299.63c-5.35,1.86 -9.26,5.42 -11.58,10.7 -1.73,4.29 -2.17,14.13 -2.17,59.08 0,32.54 0.58,56.09 1.45,59.23 0.87,2.85 3.18,6.56 5.35,8.28 3.62,2.71 5.5,2.85 60.64,2.85l57.02 0 4.63 -4.14 4.77 -4.14 0 -61.5 0 -61.51 -4.77 -4.57 -4.63 -4.71 -53.98 -0.28c-29.52,-0.14 -55.14,0.14 -56.73,0.71l0 0zm113.89 5.85l4.77 4.14 0 60.22 0 60.22 -4.77 4.14 -4.63 4.14 -54.27 0c-30.97,0 -55.57,-0.57 -57.74,-1.42 -7.96,-2.86 -8.1,-4.71 -8.1,-68.22l0 -58.51 4.19 -4.42 4.2 -4.43 55.86 0 55.86 0 4.63 4.14 0 0z"/>
   <path class="fil0" d="M1791.48 2300.2c-3.77,1 -6.52,3 -8.4,6 -2.6,4.13 -2.75,7.28 -2.46,64.79l0.44 60.5 4.77 4.14 4.63 4.14 61.5 0 61.51 0 0 -62.79c0,-68.5 -0.15,-70.07 -8.1,-75.21 -3.77,-2.28 -8.4,-2.57 -56.3,-2.85 -32.27,-0.14 -54.27,0.43 -57.59,1.28l0 0zm110.99 2.57c8.1,3 8.1,2.43 8.1,71.35l0.15 63.51 -60.2 0 -60.35 0 -4.19 -4.71 -4.35 -4.71 0.44 -59.51c0.43,-58.51 0.43,-59.51 3.47,-62.5 1.74,-1.72 4.05,-3.43 5.07,-3.86 3.61,-1.42 108.1,-1 111.86,0.43l0 0z"/>
   <path class="fil0" d="M1995.09 2299.92c-2.32,0.71 -5.94,2.99 -7.96,5.13l-3.48 3.72 0 61.36 0 61.36 4.78 4.14 4.63 4.14 54.99 0 54.99 0 4.63 -4.14 4.78 -4.14 0 -61.5 0 -61.51 -4.78 -4.57 -4.63 -4.71 -51.8 -0.28c-28.37,-0.14 -53.69,0.28 -56.15,1l0 0zm111.86 6.13l4.05 3.86 0 60.08 0 60.07 -4.77 4.14 -4.78 4.28 -54.12 -0.42 -54.27 -0.43 -3.91 -4 -4.05 -3.85 -0.43 -57.51c-0.29,-52.52 -0.15,-57.8 2.17,-62.36 4.48,-8.57 4.48,-8.57 62.95,-8.28l53.25 0.43 3.91 3.99 0 0z"/>
  </g>
 </g>
</svg>
